<svg width="122" height="20" xmlns="http://www.w3.org/2000/svg"><path d="M.003 19.114L0 19.129v-.014l.003-.001zM32.24 0c3.484 0 6.443 2.259 6.443 5.788 0 3.388-2.209 5.986-4.715 6.875l1.897 6.452H29.48v.014l-1.317-6.014h-2.336l-1.317 6.014h-5.805L22.924 0h9.316zm5.598 19.1l-.005.029V19.1l.005-.001zM71.57 0l2.82 19.129h-6.243l-.196-2.23h-6.832l-1.165 2.23h-6.818L64.33 0h7.24zm14.09 0l-1.497 6.757L90.402 0h7.368l-9.175 8.887 5.28 10.228h-6.776l-2.95-6.898-1.525 1.608-1.171 5.304h-5.787L79.872 0h5.787zm18.911 0l-4.129 19.129h-5.648L98.91 0h5.661zM122 0l-1.106 5.04h-5.066l-3.064 14.089h-5.738l3.065-14.075h-5.094L106.117 0H122zM14.865 0c3.872 0 5.54 2.47 5.54 4.758 0 2.442-2.036 4.672-4.31 4.87 1.865.522 2.727 2.174 2.727 3.783 0 2.527-1.753 5.704-6.797 5.704L.003 19.114 4.225 0h10.64zm41.672 0l-1.128 5.04h-8.697l-.394 1.892h8.499l-1.113 5.04h-8.5l-.45 2.089h8.682l-1.114 5.04-14.484-.001L42.048 0h14.489zM11.968 11.873H7.404l-.55 2.442h4.563c.975-.014 1.64-.55 1.64-1.355 0-.636-.424-1.087-1.089-1.087zm55.015-6.198l-3.213 6.17h3.76l-.547-6.17zM31.05 5.054h-3.44l-.666 3.007h3.54c1.26 0 2.18-.55 2.18-1.638 0-.804-.722-1.369-1.614-1.369zm-17.853-.24H9.015l-.55 2.245h4.365c1.088 0 1.4-.692 1.4-1.3 0-.521-.34-.945-1.032-.945z" fill="#FFF" fill-rule="evenodd"/></svg>