<svg width="122" height="31" xmlns="http://www.w3.org/2000/svg"><path d="M30.993.262v29.884H0V.262h30.993zM47.138.045c.834.03 1.663.145 2.474.345a4.047 4.047 0 013.137 3.107c.192.69.31 1.398.349 2.113.03 1.193.012 2.387.003 3.633l-.003.945-8.213.404V7.616a.62.62 0 00-.523-.613l-.098-.008h-.905a.646.646 0 00-.638.621c-.025 2.066-.021 12.17 0 14.683a.803.803 0 00.697.803c.369.026.738.033 1.107.02l.368-.02v-3.949h-.454v-5.14h8.646V29.95h-8.14V24l.08-.531-.008.014c-.125.274-1.106 4.39-1.56 6.51-1.973-.02-3.915.132-5.833-.246-2.223-.442-3.409-1.781-3.685-4.132a23.41 23.41 0 01-.153-2.5c-.026-5.469-.026-10.941 0-16.416.006-.881.1-1.76.28-2.623a4.923 4.923 0 014.192-3.88 23.996 23.996 0 012.69-.184c2.062-.017 4.128-.021 6.19.034zm68.724.28V23.15H122v6.814l-15.06.03V.326h8.922zM83.7.267v6.861h-4.23v22.81h-8.96V7.187h-4.277V.267H83.7zM64.677.31v29.628h-8.85V.31h8.85zm37.004.013l3.74 29.598h-9.878l-.323-4.91h-2.44l-.294 4.91h-9.883L86.382.322h15.299zm-89.124 5.05H5.475c-.176 0-.35.013-.535.027l-.29.02v3.013h1.14l-.081 13.501H4.667v3.048c.126.029.254.049.383.06 2.002 0 4.009.046 6.007 0 1.041-.04 2.079-.147 3.107-.32a4.94 4.94 0 004.03-3.273c.503-1.366.803-2.798.892-4.25a19.822 19.822 0 00-.637-7.605c-.595-1.926-1.7-3.448-3.766-3.954a9.314 9.314 0 00-2.126-.267zm13.076 5.3h-5.497v3.074h.753v8.221h-.723v3.048h6.223v-3.048h-.756V10.672zM10.69 8.577h.361c.23 0 .458.03.68.09A2.793 2.793 0 0113.84 11.2l.005.174v7.707l-.005.17a2.793 2.793 0 01-2.618 2.617l-.17.006h-.361V8.577h.361zm83.415-3.129h-.204l-.537 9.463-.27 4.756 1.823.005c-.272-4.766-.544-9.497-.812-14.224zm-71.653-.523c-.317.058-.63.137-.935.238a2.053 2.053 0 00-1.38 1.831l-.002.167-.003.148c.02.84.549 1.592 1.347 1.888a4.085 4.085 0 002.882.145 2.215 2.215 0 00.217-4.196 5.101 5.101 0 00-.85-.22 3.256 3.256 0 00-1.276 0z" fill="#FFF" fill-rule="evenodd"/></svg>