<svg width="122" height="19" xmlns="http://www.w3.org/2000/svg"><path d="M79.068.021c2.51 0 3.549.426 4.775 2l-.52 3.405h-.6l-.106-2.03C82.34 1.643 81.247.417 79.855.519a2.413 2.413 0 00-1.583 1.013c-.242.468-.6 1.153.111 2.357l3.774 6.34c.504.77.746 1.683.69 2.6 0 2.605-3.115 5.754-7.183 5.81-1.78-.053-2.582-.545-3.748-1.453l-.208-.163.513-3.572h.605c.165 3.587 1.395 4.255 2.344 4.353a2.91 2.91 0 002.677-1.204c.685-.957.876-2 .425-2.766l-4.391-7.66c-.6-1.017-.792-3.757 1.119-4.876C76.23.608 77.345.02 79.068.02zM90.243 0c2.46 0 3.578.426 4.68 2l-.493 3.404h-.626l-.08-2.03C93.45 1.621 92.446.396 91.016.498c-.66.059-1.25.437-1.579 1.013a2.128 2.128 0 000 2.357l3.928 6.362a4.48 4.48 0 01.677 2.596c0 2.604-3.217 5.919-7.286 5.808-1.78-.052-2.585-.545-3.68-1.452l-.19-.159.517-3.593h.634c.051 3.587 1.277 4.255 2.209 4.353a3.017 3.017 0 002.783-1.204c.6-.958.791-2 .425-2.766l-4.48-7.66c-.515-1.017-.707-3.757 1.123-4.876C87.323.587 88.443 0 90.243 0zM122 .391l-.08.669h-.448c-.595 0-.85.272-.949.872l-2.417 16.52h-3.323l.008-.073-4.06-14.843-1.901 13.473c-.081.523.106.765.515.765h.957l-.166.673h-3.727v-.673h.85c.681 0 .681-.514.681-.757l2.128-15.085c.08-.596-.162-.851-1.783-.851l.081-.677h6.68l3.252 11.69 1.438-10.183c0-.588-.268-.851-1.438-.851l.08-.669H122zM15.391.387l-.523 3.677h-.762v-.502c0-1.085-.08-2.507-1.11-2.507h-3.49L8.357 9.14l.064-.06h2.422c.727 0 1.43-.17 1.489-1.242l.196-1.098h.583l-.813 5.35h-.477l.158-1.141a1.013 1.013 0 00-1-1.2H8.353l-1.119 8.025h3.723c.737-.161 1.881-.85 2.507-4.344h.621l-.69 5.017H0l.162-.673h.804c.677 0 1-.425 1-.595l2.162-15.52c0-.595-.35-.595-1.788-.595l.086-.677H15.39zm36.14 0c2.856 0 6.03.69 5.758 4.039-.404 3.348-3.583 4.6-3.936 4.68-.353.081-2.144.69-2.413.69 2.758.608 4.562.69 4.886 1.936a36.417 36.417 0 011.06 5.174c.084.166.518 1.217 1.114 1.217l.587.03a.979.979 0 00.851-.638l2.06-15.83c0-.555-.181-.604-1.408-.608h-.38l.192-.69h12.796l-.485 3.677h-.6v-.71c-.011-1.033-.148-2.299-1.051-2.299H66.88l-1.026 8.026h2.511c.813 0 1.43-.17 1.596-1.243l.17-1.098h.587l-.787 5.35h-.536l.11-1.141a.983.983 0 00-.949-1.2h-2.6l-1.131 8.025h3.723c.766-.161 1.825-.868 2.43-4.344h.604l-.809 5.017H53.61s-1.12-.421-1.12-.668c-.076-.268-1.357-6.83-1.468-7.077-.161-.353-.353-.876-.68-.876l-1.2-.192-.852 7.106c-.191.681.162 1.034.954 1.034h.6l-.196.673H40.85l.098-.673h.808a.983.983 0 001.026-.676l1.979-15.17c.072-.409-.094-.873-.851-.873h-.702V.387zm-27.442 0l-.08.668h-.681c-.664 0-.588.588-.477 1.039l.851 3.48 2.553-3.744c.239-.187.4-.775-.268-.775h-.319l.08-.668h3.435l-.157.668h-.515c-.851 0-1 .46-1.277.851l-3.166 4.605 2.409 10.212c.161.515.425 1.03 1.191 1.03h.362l-.107.673h-8.132l.124-.652h.425l.045-.03c.184-.126.865-.624.747-1.004l-1.064-4.591-3.26 4.591c-.425.792-.425 1.039.354 1.034h.425l-.08.673h-3.528l.132-.673h.804c.464 0 .851-.595 1.196-1.03l3.706-5.484-2.247-9.15c-.08-.459-.323-1.055-1.353-1.055h-.294l.081-.668h8.085zm14.026 0c2.676.162 5.43.677 5.353 4.856-.106 2.578-2.298 4.208-3.353 4.723a6.949 6.949 0 01-3.03.787h-1.387l-.851 6.073c-.107.519.166.948.85.948h.852l-.187.673h-8.34l.084-.604c.762-.081 1.196-.162 1.196-.596l2.09-15.32c.055-.425-.788-.872-1.06-.872h-.596l.081-.668h8.298zm69.638 0l-.468 3.677h-.545v-.502c0-1.085-.166-2.507-1.055-2.507h-3.706l-1.064 8.085.145-.06h2.23c.812 0 1.43-.17 1.63-1.242l.17-1.098h.578l-.783 5.35h-.587l.162-1.141a.983.983 0 00-.95-1.2h-2.659l-1.102 8.025h3.698c.872-.161 1.876-.85 2.506-4.344h.6l-.77 5.017H92.591l.081-.673h.805c.441-.015.85-.235 1.106-.595l2.013-15.52c0-.595-.35-.595-1.779-.595l.055-.677h12.881zM71.706 17.021l.002.002-.002.013v-.015zm11.175-.004l.006.006-.002.013-.004-.019zM37.93 1.055h-.952l-1.196 9.03h1.28a.851.851 0 00.95-.766c.085-.353.761-5.808 1.034-7.2 0-.791-.426-1.064-1.115-1.064zM50.725.988h-.281l.017.008-1.115 8.085h1.361a.77.77 0 00.851-.792l.873-6.42c.073-.802-.775-.874-1.706-.881z" fill="#FFF" fill-rule="evenodd"/></svg>