<svg width="10" height="16" xmlns="http://www.w3.org/2000/svg"><path d="M6.75 4H9a.5.5 0 00.5-.5v-3A.5.5 0 009 0H6.75A4.255 4.255 0 002.5 4.25V6H.75a.5.5 0 00-.5.5v3a.5.5 0 00.5.5H2.5v5.5a.5.5 0 00.5.5h3a.5.5 0 00.5-.5V10h1.75a.5.5 0 00.5-.38l.75-3a.5.5 0 00-.09-.43A.5.5 0 009 6H6.5V4.25A.25.25 0 016.75 4zM6 7h2.36l-.5 2H6a.5.5 0 00-.5.5V15h-2V9.5A.5.5 0 003 9H1.25V7H3a.5.5 0 00.5-.5V4.25A3.255 3.255 0 016.75 1H8.5v2H6.75c-.69 0-1.25.56-1.25 1.25V6.5A.5.5 0 006 7z" fill="#EAF1F3" fill-rule="evenodd"/></svg>