<svg width="16" height="16" xmlns="http://www.w3.org/2000/svg"><path d="M14.39 0A1.595 1.595 0 0116 1.58v12.84A1.595 1.595 0 0114.39 16H1.605A1.595 1.595 0 010 14.42V1.58A1.595 1.595 0 011.605 0H14.39zm0 1H1.605A.595.595 0 001 1.58v12.84a.595.595 0 00.605.58H14.39a.595.595 0 00.61-.58V1.58a.595.595 0 00-.61-.58zM5.46 6.205v6.67H3.385v-6.67H5.46zm5.29-.165c2.095 0 2.5 1.38 2.5 3.18v3.655h-2.1V9.63c0-.77 0-1.765-1.08-1.765s-1.24.84-1.24 1.71v3.3H6.76v-6.67h2v.915h.03a2.17 2.17 0 011.96-1.08zM4.42 2.895a1.2 1.2 0 110 2.4 1.2 1.2 0 010-2.4z" fill="#EAF1F3" fill-rule="evenodd"/></svg>