<svg width="233" height="48" xmlns="http://www.w3.org/2000/svg"><path d="M24.61.008C37.632.336 48.016 10.989 48.01 24.013c-.008 12.443-9.52 22.793-21.875 23.89l-.375.03V31.07a7.28 7.28 0 005.5-6.778l.004-.262h4.728c0 4.04-2.032 7.8-5.392 10.015l-.283.18v8c8.887-3.087 14.247-12.138 12.68-21.413-1.565-9.275-9.6-16.066-19.007-16.066-9.409 0-17.442 6.79-19.008 16.066-1.546 9.158 3.659 18.097 12.344 21.293l.336.12v-8a11.984 11.984 0 01-5.67-9.859l-.004-.336h4.727a7.277 7.277 0 005.249 6.972l.253.068v16.864C9.226 46.963-.62 35.81.03 22.803.68 9.795 11.588-.321 24.61.008zm78.413 17.503c5.659 0 9.806 3.152 9.806 7.517h-4.362c-.045-2.16-2.333-3.674-5.489-3.674-2.375 0-4.362 1.28-4.362 3.069-.045 4.8 14.722 1.296 14.777 9.418 0 4.278-3.975 7.43-9.55 7.43-5.79 0-9.98-3.498-9.98-8.336h4.32c0 2.634 2.376 4.534 5.66 4.534 2.937 0 5.056-1.382 5.056-3.238-.045-4.925-14.69-.736-14.69-9.763 0-4.02 3.84-6.957 8.814-6.957zm19.898.867v13.095c0 3.25 1.92 5.638 5.249 5.638a5.998 5.998 0 006.026-6.08V18.378h4.683v22.026h-4.638v-2.816c-1.52 2.297-4.295 3.683-7.115 3.683-5.418 0-8.932-3.987-8.932-9.453v-13.44h4.727zm48.43-.867c6.853 0 11.72 4.858 11.72 11.664 0 .518-.044 1.171-.085 1.648h-18.564c.564 3.9 3.339 6.502 6.984 6.502 2.807 0 5.454-1.552 6.452-3.596l4.075 1.344c-1.3 3.596-5.681 6.198-10.45 6.198-6.939 0-11.929-5.072-11.929-12.14 0-6.762 4.945-11.62 11.798-11.62zm49.135 0c7.067 0 11.97 4.9 11.97 11.882 0 6.982-4.941 11.878-11.97 11.878-7.066 0-11.966-4.9-11.966-11.878 0-6.98 4.9-11.882 11.966-11.882zm-139.97 0c5.378 0 8.892 3.987 8.892 9.453v13.44h-4.683V27.309c0-3.25-1.952-5.635-5.248-5.635a5.97 5.97 0 00-6.027 6.08v12.66h-4.727V18.377h4.64v2.82a8.665 8.665 0 017.154-3.687zM192.6 8.404l-.01 32h-4.717v-32h4.727zm11.119 0v32h-4.728v-32h4.728zM62.338 18.378l-.016 22.026H57.61V18.378h4.728zm93.481-.867c.951.024 1.89.215 2.775.563v4.208a8.992 8.992 0 00-3.367-.739c-3.165 0-5.204 2.82-5.204 6.72v12.138h-4.743V18.378h4.554v2.733c1.344-2.24 3.47-3.6 5.985-3.6zm64.667 4.163c-4.247 0-7.284 3.251-7.284 7.719 0 4.467 3.037 7.718 7.284 7.718s7.288-3.254 7.288-7.718-3.079-7.719-7.288-7.719zm-49.256-.217c-3.556 0-6.158 2.384-6.808 5.897h13.737c-.528-3.469-3.293-5.897-6.93-5.897zM27.768 10.813a4.238 4.238 0 014.222 4.26c0 1.161-.7 2.78-2.048 4.06l-5.937 5.684-5.957-5.693c-1.347-1.29-2.045-2.9-2.045-4.061a4.234 4.234 0 014.203-4.25c1.926 0 2.746.839 3.783 1.888 1.033-1.05 1.86-1.888 3.78-1.888zm32.188-2.41a2.695 2.695 0 110 5.39 2.695 2.695 0 010-5.39z" fill="#3B8BBA" fill-rule="evenodd"/></svg>