<svg width="64" height="64" xmlns="http://www.w3.org/2000/svg"><path d="M.04 30.421C.896 13.076 15.432-.42 32.793.01 50.154.44 64.003 14.64 64 32.006c-.004 16.763-12.944 30.681-29.662 31.906V41.414a9.707 9.707 0 007.339-9.386h6.302a15.983 15.983 0 01-7.565 13.593v10.667c11.847-4.117 18.992-16.185 16.904-28.552C55.231 15.37 44.521 6.316 31.98 6.316c-12.542 0-23.252 9.053-25.34 21.42-2.087 12.367 5.058 24.435 16.905 28.552V45.62a15.974 15.974 0 01-7.565-13.593h6.323a9.702 9.702 0 007.335 9.386v22.498C12.317 62.63-.817 47.767.04 30.422zm36.978-16.01a5.649 5.649 0 015.628 5.666c0 1.544-.935 3.703-2.731 5.41L32 33.077l-7.94-7.59c-1.796-1.715-2.726-3.866-2.726-5.41a5.645 5.645 0 015.602-5.666c2.568 0 3.66 1.118 5.043 2.517 1.378-1.4 2.479-2.517 5.039-2.517z" fill="#EAF1F3" fill-rule="evenodd"/></svg>