<svg viewBox="0 0 19 14" fill="none" xmlns="http://www.w3.org/2000/svg"><path class="colorable" fill-rule="evenodd" clip-rule="evenodd" d="M16.663.39a2.749 2.749 0 011.947 1.934c.372 1.375.39 4.048.39 4.393v.066c0 .345-.018 3.032-.39 4.392a2.749 2.749 0 01-1.947 1.935c-1.429.383-6.735.39-7.145.39H9.5c-.233 0-5.708 0-7.157-.39A2.754 2.754 0 01.39 11.175a23.348 23.348 0 01-.39-4.425v-.098c.003-.534.036-3.032.395-4.328.25-.942.993-1.68 1.947-1.935C3.689.027 8.506.001 9.373 0h.254c.868.002 5.685.028 7.036.39zM9.628 1H9.5c-1.52 0-5.799.064-6.894.354A1.742 1.742 0 001.374 2.58a22.755 22.755 0 00-.36 4.17 22.756 22.756 0 00.36 4.17c.16.596.63 1.063 1.232 1.226 1.066.282 5.127.351 6.767.355H9.5c1.546 0 5.8-.065 6.9-.355a1.747 1.747 0 001.231-1.225c.247-1.377.366-2.773.355-4.17a22.612 22.612 0 00-.284-3.757l-.07-.414a1.747 1.747 0 00-1.233-1.225c-1.07-.282-5.13-.351-6.771-.355zM7.66 4.11l4.704 2.64L7.66 9.39V4.11z" fill="#FFF"/></svg>