<svg width="96" height="96" xmlns="http://www.w3.org/2000/svg"><g fill="none" fill-rule="evenodd"><path d="M96 48c0 26.51-21.49 48-48 48S0 74.51 0 48C0 21.491 21.49 0 48 0s48 21.491 48 48" fill="#FFF"/><path d="M21.946 2h52.107a5.572 5.572 0 015.572 5.571v80.858A5.57 5.57 0 0174.053 94H21.946a5.571 5.571 0 01-5.57-5.571V7.571A5.572 5.572 0 0121.945 2" fill="#FFF"/><path fill="#EAF1F3" d="M75.4 6.427L20.507 6.28l-.174 83.345 54.892.145z"/><path d="M72.438 61.01v26.01H23.295V61.01h49.143zm0-29.505v26.01H23.295v-26.01h49.143zm0-22.348V28.01H23.295V9.157h49.143z" fill="#FFF"/><path d="M32.98 78.75c.07.07.13.15.19.23.05.08.1.17.13.26a1.358 1.358 0 01.12.57 1.514 1.514 0 01-.93 1.39 1.562 1.562 0 01-1.15 0c-.18-.08-.34-.19-.48-.33a1.51 1.51 0 01-.33-.49c-.07-.18-.11-.37-.11-.57 0-.1.01-.2.03-.29.02-.1.05-.19.08-.28.04-.09.09-.18.14-.26.06-.08.12-.16.19-.23s.14-.13.23-.19c.08-.05.16-.1.25-.13a1.505 1.505 0 011.64.32zm27.958.06a1 1 0 110 2H37.669a1 1 0 110-2h23.269zM32.21 72.59c.1.02.189.05.28.09.09.03.18.08.26.13a1.499 1.499 0 01.67 1.25c0 .2-.04.39-.12.57-.07.19-.18.35-.32.49s-.31.25-.49.33a1.562 1.562 0 01-1.15 0c-.18-.08-.34-.19-.481-.33a1.51 1.51 0 01-.33-.49c-.07-.18-.11-.37-.11-.57a1.52 1.52 0 01.67-1.25c.08-.05.16-.1.25-.13.1-.04.19-.07.29-.09.19-.04.39-.04.58 0zm28.727.47a1 1 0 110 2H37.669a1 1 0 110-2h23.269zm5.75-5.75a1 1 0 110 2H29.044a1 1 0 110-2h37.644zM32.21 19.33c.1.02.189.05.28.079.09.04.18.09.26.14.08.06.16.12.23.19s.129.15.19.23c.05.08.1.17.13.26.04.09.07.18.09.28a1.5 1.5 0 01-.41 1.35c-.14.14-.31.25-.49.33a1.562 1.562 0 01-1.15 0c-.18-.08-.34-.19-.481-.33a1.504 1.504 0 01-.41-1.35c.02-.1.05-.19.08-.28.04-.09.09-.18.14-.26.06-.08.12-.16.19-.23s.14-.13.23-.19c.08-.05.16-.1.25-.14.1-.03.19-.06.29-.08.19-.04.39-.04.58 0zm28.727.47a1 1 0 110 2H37.669a1 1 0 110-2h23.269zM32.21 13.58c.1.02.189.05.28.09.09.029.18.08.26.13.08.06.16.12.23.189.07.07.129.15.18.23.06.08.11.17.14.26.04.09.07.18.09.28.02.09.03.19.03.29 0 .2-.04.39-.11.57-.08.19-.19.35-.33.49s-.31.25-.49.33c-.18.07-.37.11-.57.11-.2 0-.39-.04-.57-.11-.19-.08-.35-.19-.491-.33a1.48 1.48 0 01-.41-1.35c.02-.1.05-.19.08-.28.04-.09.09-.18.14-.26.06-.08.12-.16.19-.23a1.493 1.493 0 011.35-.41zm28.727.47a1 1 0 110 2H37.669a1 1 0 110-2h23.269z" fill="#EAF1F3"/><path d="M32.21 48.83c.1.02.19.05.28.09.09.04.18.08.26.14.08.05.16.12.23.19.28.27.44.66.44 1.06 0 .19-.04.39-.11.57-.08.18-.19.34-.33.48a1.467 1.467 0 01-1.64.33c-.18-.07-.34-.18-.48-.33-.14-.14-.25-.3-.33-.48-.07-.18-.11-.37-.11-.57 0-.4.16-.79.44-1.06.07-.07.14-.14.22-.19a1.531 1.531 0 01.55-.229c.19-.042.39-.042.58 0zm28.727.476a1 1 0 110 2H37.67a1 1 0 110-2h23.267zM32.212 43.09c.1.02.189.04.28.08.09.04.18.08.26.14a1.499 1.499 0 01.67 1.25c0 .39-.16.77-.44 1.05-.14.15-.31.26-.49.33-.18.08-.37.12-.57.12-.4 0-.78-.16-1.061-.45a1.437 1.437 0 01-.44-1.05c0-.4.16-.79.44-1.06a1.49 1.49 0 011.35-.41zm28.727.466a1 1 0 110 2H37.669a1 1 0 110-2h23.269zm4.924-5.75a1 1 0 110 2H29.863a1 1 0 110-2h36z" fill="#3B8BBA"/><path d="M74.053 1a6.58 6.58 0 016.572 6.571v80.858A6.58 6.58 0 0174.053 95H21.946a6.579 6.579 0 01-6.57-6.571V7.571A6.579 6.579 0 0121.945 1h52.107zm0 2H21.946a4.576 4.576 0 00-4.57 4.571v80.858c0 2.52 2.05 4.571 4.57 4.571h52.107a4.577 4.577 0 004.572-4.571V7.571A4.577 4.577 0 0074.053 3zM47.866 75.75a6.758 6.758 0 016.75 6.75 6.758 6.758 0 01-6.75 6.75 6.758 6.758 0 01-6.75-6.75 6.758 6.758 0 016.75-6.75zm0 2a4.756 4.756 0 00-4.75 4.75 4.756 4.756 0 004.75 4.75 4.756 4.756 0 004.75-4.75 4.756 4.756 0 00-4.75-4.75zm-.004-51.97c11.775 0 21.354 9.58 21.354 21.354 0 5.544-2.122 10.6-5.598 14.4L73.994 71.87a.999.999 0 11-1.412 1.416l-10.38-10.34a21.27 21.27 0 01-14.34 5.544c-11.775 0-21.354-9.579-21.354-21.355 0-11.775 9.58-21.354 21.354-21.354zm0 2c-10.672 0-19.354 8.683-19.354 19.354 0 10.672 8.682 19.355 19.354 19.355 10.672 0 19.354-8.683 19.354-19.355 0-10.67-8.682-19.354-19.354-19.354z" fill="#1B293C"/></g></svg>