<svg width="96" height="96" xmlns="http://www.w3.org/2000/svg"><g fill="none" fill-rule="evenodd"><path d="M96 48c0 26.51-21.491 48-48 48C21.49 96 0 74.51 0 48S21.49 0 48 0c26.509 0 48 21.49 48 48" fill="#FFF"/><path d="M61.173 50.548c4.654 8.495 15.313 11.607 23.808 6.954 8.494-4.654 11.607-15.313 6.953-23.808C87.279 25.2 76.62 22.087 68.126 26.74c-8.494 4.655-11.607 15.313-6.953 23.807" fill="#EAF1F3"/><path d="M89.192 40.986a12.695 12.695 0 01-6.54 12.266 12.659 12.659 0 01-6.091 1.56c-2.754 0-5.493-.896-7.766-2.65a1.001 1.001 0 011.223-1.584 10.69 10.69 0 0011.673.92A10.698 10.698 0 0087.2 41.165a1 1 0 01.907-1.084.992.992 0 011.085.907zM74.83 36.4l.147.267a4.238 4.238 0 011.723-.144c1.029.141 1.848.72 2.372 1.675a1 1 0 01-1.754.961c-.218-.399-.492-.6-.888-.653-.485-.073-1.057.071-1.678.411-.536.294-.906.644-1.1 1.041-.181.368-.116.584-.018.761.096.176.2.291.319.352.104.053.296.122.663.11.263-.004.773-.054 1.707-.275.908-.217 1.615-.316 2.179-.314.636.006 1.19.14 1.649.394.478.267.872.678 1.17 1.224.484.883.508 1.845.07 2.785a4.19 4.19 0 01-1.083 1.402l.14.258a1 1 0 11-1.754.96l-.108-.197a4.412 4.412 0 01-1.53.28 3.61 3.61 0 01-1.801-.467 3.683 3.683 0 01-1.425-1.465 1 1 0 011.754-.96c.168.306.383.531.656.684.272.155.574.228.92.205a2.7 2.7 0 001.165-.35c.622-.342 1.044-.744 1.253-1.195.169-.364.167-.656-.01-.979-.115-.21-.246-.357-.39-.437-.162-.09-.402-.14-.695-.142-.278.01-.78.042-1.698.26-.905.213-1.604.322-2.14.33-.621.006-1.163-.103-1.61-.334-.477-.246-.867-.639-1.156-1.169-.448-.819-.457-1.718-.023-2.6.286-.587.73-1.1 1.322-1.53l-.101-.188a.999.999 0 111.753-.96zm9.482-4.319a1.001 1.001 0 01-1.222 1.584 10.696 10.696 0 00-11.674-.919 10.693 10.693 0 00-5.509 10.333 1 1 0 01-1.992.178 12.695 12.695 0 016.54-12.265 12.695 12.695 0 0113.857 1.089z" fill="#FFF"/><path d="M32.411 18.255c-.876 8.79 5.54 16.627 14.331 17.503 8.791.876 16.627-5.54 17.503-14.331.876-8.79-5.54-16.627-14.33-17.503-8.79-.876-16.628 5.54-17.504 14.33" fill="#EAF1F3"/><path d="M39.134 22.81a9.67 9.67 0 008.237 6.647 9.675 9.675 0 009.385-4.891.999.999 0 111.744.978 11.672 11.672 0 01-11.328 5.903 11.67 11.67 0 01-9.94-8.022 1 1 0 011.902-.615zm10.038-9.249a1 1 0 01.897 1.094l-.02.206c.515.18.961.44 1.334.78.723.652 1.051 1.535.95 2.554a.997.997 0 01-1.095.895 1 1 0 01-.896-1.094c.04-.386-.05-.648-.3-.873-.325-.294-.803-.474-1.425-.535-.538-.053-.98.015-1.314.206-.275.155-.343.31-.362.496-.017.162 0 .286.05.38.037.067.14.21.413.392.194.128.596.348 1.41.662.804.311 1.398.604 1.818.897.49.343.848.74 1.068 1.182.228.46.316.99.26 1.57-.096.942-.589 1.702-1.428 2.198-.443.263-.945.43-1.5.501l-.021.195a1 1 0 01-1.99-.198l.012-.13a4.126 4.126 0 01-1.096-.47 3.394 3.394 0 01-1.299-1.415 3.441 3.441 0 01-.325-1.883c.055-.549.56-.945 1.095-.896a1 1 0 01.895 1.095c-.03.3.013.563.132.806.117.241.298.433.553.591.288.178.623.283 1.021.323.626.064 1.13-.019 1.505-.24.292-.173.424-.369.454-.677.02-.199 0-.36-.06-.48-.069-.139-.213-.287-.42-.433-.194-.134-.594-.36-1.395-.67-.799-.309-1.387-.59-1.797-.863-.485-.323-.844-.697-1.067-1.11-.24-.448-.334-.962-.278-1.527.09-.877.561-1.582 1.367-2.037.511-.29 1.097-.45 1.747-.479l.013-.116c.056-.55.558-.946 1.094-.897zm.314-5.326c4.61.46 8.51 3.607 9.939 8.023a1 1 0 11-1.902.616 9.667 9.667 0 00-8.237-6.65 9.676 9.676 0 00-9.384 4.893 1 1 0 11-1.744-.979 11.638 11.638 0 0111.328-5.903z" fill="#FFF"/><path d="M2.674 38.71C.212 48.078 5.811 57.667 15.178 60.129c9.368 2.462 18.957-3.137 21.42-12.504 2.461-9.368-3.137-18.958-12.506-21.419-9.367-2.462-18.957 3.137-21.418 12.504" fill="#EAF1F3"/><path d="M9.075 44.813a10.697 10.697 0 007.843 8.695 10.7 10.7 0 0011.106-3.715.999.999 0 111.568 1.24 12.7 12.7 0 01-9.961 4.826A12.694 12.694 0 017.099 45.122a1.002 1.002 0 01.833-1.143 1.006 1.006 0 011.143.834zm12.53-8.206a1 1 0 01.714 1.221l-.076.293c.544.282.995.644 1.35 1.083.65.807.848 1.792.57 2.846a.999.999 0 11-1.934-.509c.114-.439.056-.773-.194-1.083-.314-.39-.82-.678-1.5-.856-.593-.155-1.104-.157-1.52-.002-.383.144-.483.344-.534.54-.052.195-.055.35-.01.478.038.107.14.29.404.533.194.178.599.49 1.43.974.813.471 1.401.887 1.799 1.272.456.44.768.917.925 1.42.165.523.166 1.093.009 1.692-.256.972-.9 1.688-1.864 2.07-.47.186-.982.28-1.526.28l-.226-.007-.074.284a1 1 0 11-1.934-.508l.057-.218a4.436 4.436 0 01-1.159-.718 3.64 3.64 0 01-1.133-1.708 3.685 3.685 0 01-.026-2.044 1 1 0 111.933.51c-.087.337-.085.647.006.95.09.295.264.551.527.778.293.252.648.431 1.09.547.683.181 1.265.178 1.729-.006.373-.147.572-.363.666-.718.06-.232.066-.429.018-.587-.056-.177-.195-.372-.407-.577-.192-.186-.59-.505-1.413-.982-.805-.468-1.386-.87-1.78-1.23-.457-.42-.772-.874-.938-1.348-.178-.51-.19-1.064-.037-1.646.235-.9.848-1.56 1.77-1.904.613-.229 1.287-.296 2.012-.2l.056-.207a1 1 0 011.22-.713zm1.257-5.715a12.697 12.697 0 019.312 10.321 1 1 0 01-1.976.308 10.7 10.7 0 00-7.844-8.695 10.708 10.708 0 00-11.106 3.716 1 1 0 11-1.568-1.24 12.694 12.694 0 0113.182-4.41z" fill="#FFF"/><path d="M22.901 90.727V49.43c0-2.481 1.992-4.492 4.45-4.492h41.62c2.458 0 4.451 2.01 4.451 4.492v41.297" fill="#EAF1F3"/><path fill="#FFF" d="M70.048 48.472l-43.845-.115-.068 42.37 43.846.116z"/><path d="M68.972 43.938a5.456 5.456 0 015.45 5.45v41.12a1 1 0 11-2 0v-41.12a3.454 3.454 0 00-3.45-3.45h-41.62a3.455 3.455 0 00-3.451 3.45v41.12a1 1 0 11-2 0v-41.12a5.457 5.457 0 015.45-5.45h41.62zm-18.514 6.98a1 1 0 110 2h-9.186a1 1 0 110-2h9.186zm4.789.02c.06.01.13.03.19.06.06.02.11.05.17.09a.91.91 0 01.15.12c.09.1.17.21.22.33.05.12.07.25.07.38s-.02.26-.07.38-.13.229-.22.33a.99.99 0 01-.71.29.97.97 0 01-.7-.29c-.1-.101-.17-.21-.22-.33a.995.995 0 01-.08-.38c0-.13.03-.26.08-.38.05-.13.12-.23.22-.33a.99.99 0 01.9-.27zm-.917-11.383a1 1 0 01-1.405 1.424c-2.61-2.573-6.828-2.54-9.4.068a.998.998 0 01-1.414.01.999.999 0 01-.01-1.414c3.348-3.396 8.833-3.436 12.229-.088zm-6.215-13.959c5.334-.022 10.439 2.017 14.266 5.79a.999.999 0 11-1.404 1.424 17.992 17.992 0 00-12.713-5.214h-.135a18.003 18.003 0 00-12.773 5.399.998.998 0 01-1.414.01.999.999 0 01-.01-1.414 19.989 19.989 0 0114.183-5.995z" fill="#1B293C"/><path d="M48.096 62.079c6.88.002 12.456 5.582 12.454 12.462a12.457 12.457 0 01-11.538 12.411v-8.757a3.777 3.777 0 002.855-3.654h2.454a6.226 6.226 0 01-2.945 5.292v4.152a10.003 10.003 0 006.166-6.166c1.814-5.218-.947-10.92-6.166-12.734-5.22-1.814-10.921.947-12.734 6.167-1.814 5.219.947 10.92 6.166 12.733v-4.152a6.222 6.222 0 01-2.945-5.292h2.454a3.777 3.777 0 002.855 3.662v8.758a12.458 12.458 0 01-11.538-12.429c.002-6.88 5.582-12.455 12.462-12.453zm1.958 5.612a2.2 2.2 0 012.19 2.206c0 .601-.363 1.442-1.061 2.106l-3.091 2.955L45 71.996c-.697-.668-1.06-1.505-1.06-2.106 0-1.211.979-2.195 2.19-2.199.998 0 1.425.435 1.962.98.536-.545.965-.98 1.962-.98z" fill="#3B8BBA"/></g></svg>