<svg width="96" height="96" xmlns="http://www.w3.org/2000/svg"><g fill="none" fill-rule="evenodd"><path d="M0 48c0 26.51 21.49 48 48 48s48-21.49 48-48S74.51 0 48 0 0 21.49 0 48" fill="#FFF"/><path fill="#FFF" d="M62.026 4.5h-42.5v85h68V30z"/><path d="M20.526 88.5h66V30.414L61.612 5.5H20.526v83zm67 2h-68a1 1 0 01-1-1v-85a1 1 0 011-1h42.5c.265 0 .52.105.707.293l25.5 25.5a.996.996 0 01.293.707v59.5a1 1 0 01-1 1z" fill="#1B293C"/><path fill="#EAF1F3" d="M62.026 5.894V30h23.898"/><path d="M85.924 31H62.026a1 1 0 01-1-1V5.894a1 1 0 112 0V29h22.898a1 1 0 110 2M70.526 42.927h-34a1 1 0 110-2h34a1 1 0 110 2M70.526 54.854h-34a1 1 0 110-2h34a1 1 0 110 2M51.56 31H36.527a1 1 0 110-2H51.56a1 1 0 110 2" fill="#1B293C"/><path d="M55.938 75.343c.185.673 1.488.882 2.36 1.1.841.212 1.85-.191 2.551-.394 4.292-1.247 10.107.219 14.708.219 2.72 0 2.72-2.518 0-2.518-5.363 0-9.826-.809-15.14-.286 0-.184-.115-.433-.446-.77-.994-1.014-2.259-1.302-3.524-1.18-.084-.118-.167-.238-.286-.359-.333-.324-.796-.486-1.316-.554 1.483-1.546 2.44-3.182 1.466-4.505-.297-.403-1.143-.608-1.823-.625-2.818-.064-5.235 1.702-7.048 2.762-4.535 2.651-8.526 5.662-12.392 8.658-1.658 1.287 2.013 2.537 3.644 1.272 3.423-2.653 7.052-5.229 10.956-7.639a48.404 48.404 0 01-2.989 2.696c-1.503 1.386 2.082 2.563 3.642 1.271.371-.337.844-.582 1.358-.791-.1.158-.206.309-.312.467l.015.002c-.08.102-.163.202-.229.298-.944 1.409 2.58 2.056 3.86.968.323-.274.624-.567.896-.872-.019.21-.029.493.05.78M12.882 73.817h13.02c.652 0 1.183.53 1.183 1.184v18.766a1.185 1.185 0 01-1.724 1.053l-4.968-2.543a1.181 1.181 0 00-1.025-.026l-6 2.7a1.184 1.184 0 01-1.67-1.08v-18.87c0-.654.53-1.184 1.184-1.184" fill="#3B8BBA"/><path fill="#FFF" d="M19.391 81.946l-4.682 1.977-2.87-4.195-5.008-.868-.148-5.081-3.743-3.437 2.623-4.354-1.29-4.916 4.56-2.244 1.573-4.833 5.05.577 3.935-3.216 3.936 3.216 5.05-.577 1.572 4.833 4.56 2.244-1.29 4.916 2.623 4.354-3.743 3.437-.147 5.08-5.008.869-2.87 4.195z"/><path d="M19.391 80.946c.132 0 .265.026.39.079l3.93 1.658 2.408-3.52a.997.997 0 01.654-.42l4.202-.73.124-4.263a.998.998 0 01.324-.707l3.141-2.885-2.2-3.654a1 1 0 01-.112-.77l1.082-4.126-3.826-1.883a.999.999 0 01-.51-.588L27.68 55.08l-4.238.484a.987.987 0 01-.747-.22l-3.303-2.698-3.303 2.699a.986.986 0 01-.746.219l-4.238-.484-1.319 4.056a1.002 1.002 0 01-.51.588l-3.827 1.883 1.083 4.126c.068.26.028.539-.11.77l-2.202 3.654 3.141 2.885c.198.182.315.437.323.707l.124 4.264 4.202.729a.997.997 0 01.654.42l2.41 3.52 3.93-1.658a.991.991 0 01.388-.08m-4.682 3.978a1 1 0 01-.825-.436l-2.633-3.846-4.59-.796a1 1 0 01-.83-.956l-.135-4.66-3.432-3.151a.999.999 0 01-.18-1.252l2.405-3.992-1.183-4.508a.999.999 0 01.526-1.151l4.181-2.058 1.441-4.432a.985.985 0 011.065-.683l4.631.529 3.608-2.95a1 1 0 011.266 0l3.61 2.95 4.63-.53a.982.982 0 011.064.684l1.441 4.432 4.182 2.058a1 1 0 01.525 1.15l-1.183 4.509 2.406 3.992a.999.999 0 01-.18 1.252l-3.433 3.152-.135 4.659a1 1 0 01-.829.956l-4.59.796-2.633 3.846a.998.998 0 01-1.214.356l-4.294-1.812-4.293 1.812a.985.985 0 01-.389.08" fill="#1B293C"/></g></svg>