<svg width="96" height="96" xmlns="http://www.w3.org/2000/svg"><g fill="none" fill-rule="evenodd"><path d="M96 48c0 26.51-21.49 48-48 48S0 74.51 0 48 21.49 0 48 0s48 21.49 48 48" fill="#FFF"/><path d="M43.801 77.301c2.618 0 3.828 1.621 3.407 4.265l-1.21 7.934H41.35l1.002-6.331c.196-1.182-.166-1.744-1.057-1.744-.724 0-1.392.394-2.032 1.265l-1.058 7.81h-4.71l1.986-13h4.492l-.254 1.563c1.492-1.279 2.618-1.762 4.082-1.762zm-16.677.3c2.7 0 5.094 1.125 4.65 4.105l-.53 3.375c-.196 1.182-.14 1.547 1.17 1.576l-1.337 3.15c-2.31.169-3.425-.085-3.982-1.097a7.573 7.573 0 01-4.037 1.153c-2.617 0-3.535-1.378-3.285-2.897.111-.731.53-1.434 1.197-2.025 1.45-1.266 5.012-1.434 6.404-2.391.111-1.068-.306-1.462-1.615-1.462-1.53 0-2.812.506-5.01 2.025l.528-3.488c1.893-1.377 3.73-2.024 5.847-2.024zM55.381 74.5l-1.168 7.375L58.64 77.5h5.74l-5.744 5.118 4.617 6.882H57.22l-3.198-5h-.05l-.762 5h-4.79l2.315-15h4.646zm17.467 0l-2.364 15h-5.377l2.364-15h5.377zm10.327 0c5.941 0 7.658 4.211 7.095 7.706-.535 3.413-3.294 7.294-8.502 7.294h-8.67l2.393-15h7.684zm-68.822 0c3.698 0 4.596 1.896 4.323 3.626-.217 1.402-1.17 2.446-2.801 3.132 2.068.797 2.883 2.033 2.584 3.984-.38 2.445-2.474 4.258-5.221 4.258H3.366l2.312-15h8.675zm12.715 10.019c-1.226.788-3.509.647-3.759 2.278-.11.76.362 1.323 1.113 1.323.724 0 1.616-.31 2.34-.816-.056-.281-.029-.562.055-1.098l.251-1.687zm-16.32-1.02h-1.63l-.621 4h1.5v-.025c1.658 0 2.615-.68 2.848-2.065.18-1.203-.492-1.91-2.097-1.91zM81.734 77.5h-1.46l-1.259 8h1.431c2.661 0 4.12-1.287 4.55-4 .314-2.015-.316-4-3.262-4zm-69.7-1h-1.522l-.61 4h1.523c1.717 0 2.52-.923 2.686-2.014.167-1.175-.36-1.986-2.076-1.986zm48.815-71c20.505 0 34.802 8.965 31.242 31.436a38.392 38.392 0 01-1.347 5.671l-.018.055a36.3 36.3 0 01-1.31 3.438 34.874 34.874 0 01-1.788 3.495 33.71 33.71 0 01-2.868 4.142 33.143 33.143 0 01-6.97 6.444 33.856 33.856 0 01-3.998 2.37 34.85 34.85 0 01-3.588 1.569 36.08 36.08 0 01-3.254 1.043l-.093.025a37.549 37.549 0 01-3.07.685 38.982 38.982 0 01-4.102.517 40.651 40.651 0 01-1.952.096l-.535.01-.536.004h-4.243l.005-.031 2.87-18.24c7.152-.057 13.17-3.358 14.55-11.016l.062-.362a22.366 22.366 0 00.096-.68l.038-.318c.092-.844.125-1.636.1-2.378a13.256 13.256 0 00-.107-1.295 10.986 10.986 0 00-.135-.775 9.591 9.591 0 00-.339-1.194 8.192 8.192 0 00-.272-.664l.062.136a7.837 7.837 0 00-.117-.252l.055.116a7.759 7.759 0 00-.082-.173l.027.057a7.662 7.662 0 00-.097-.195l.07.138a7.592 7.592 0 00-.145-.279l.075.14a7.531 7.531 0 00-.1-.183l.025.043a7.453 7.453 0 00-.09-.159l.066.116a7.415 7.415 0 00-.118-.205l.052.09a7.31 7.31 0 00-.294-.468l.047.07a7.204 7.204 0 00-.119-.173l.072.103a7.184 7.184 0 00-.134-.189l.062.086a7.164 7.164 0 00-.119-.162l.057.076a7.15 7.15 0 00-.13-.172l.073.096a7.14 7.14 0 00-.135-.175l.062.079a7.138 7.138 0 00-.357-.423l.068.075a7.169 7.169 0 00-.135-.147l.067.072a7.19 7.19 0 00-.157-.166l.09.094a7.217 7.217 0 00-.175-.18l.085.086a7.242 7.242 0 00-.125-.126l.04.04a7.29 7.29 0 00-.163-.157l.123.117a7.317 7.317 0 00-.19-.179l.067.062a7.37 7.37 0 00-.131-.12l.064.058a7.426 7.426 0 00-.18-.158l.116.1a7.463 7.463 0 00-.16-.138l.045.038a7.551 7.551 0 00-.175-.145l.13.107a7.59 7.59 0 00-.187-.152l.057.045a7.762 7.762 0 00-.43-.322l.094.067a8.024 8.024 0 00-.207-.144l.113.077a8.113 8.113 0 00-.19-.127l.077.05a8.22 8.22 0 00-.157-.102l.08.052a8.35 8.35 0 00-.234-.148l.154.096a8.42 8.42 0 00-.19-.118l.036.022a8.59 8.59 0 00-.16-.095l.124.073a8.681 8.681 0 00-.233-.135l.109.062a8.845 8.845 0 00-.237-.132l.128.07a8.952 8.952 0 00-.176-.096l.048.026a9.303 9.303 0 00-.474-.238l.052.024a9.802 9.802 0 00-.231-.106l.18.082a9.874 9.874 0 00-.218-.099l.038.017a10.133 10.133 0 00-.177-.076l.139.06c-.082-.036-.164-.071-.247-.105l.108.045a10.5 10.5 0 00-.257-.104l.15.06c-.075-.031-.15-.061-.227-.09l.077.03a10.917 10.917 0 00-.215-.082l.138.052a11.062 11.062 0 00-.22-.081l.082.03a11.553 11.553 0 00-1.253-.382l.201.051a13.53 13.53 0 00-.27-.068l.069.017a13.895 13.895 0 00-.193-.047l.124.03a14.437 14.437 0 00-1.361-.266l.08.013a17.141 17.141 0 00-.132-.02l.052.007a17.552 17.552 0 00-.281-.04l.229.033a18.235 18.235 0 00-1.555-.163c-.45-.03-.913-.046-1.39-.049V24.5H53.19l-.184-.005c-1.303-.065-2.898-.812-3.331-1.943-.141-.396-.425-1.722 1.757-3.247.822-.593 2.268-1.779 2.579-3.218.255-1.214-.085-2.372-.963-3.191-.992-.931-2.636-1.439-4.79-1.439l-.283.004c-3.457.11-6.045 2.223-6.348 4.174-.028.141-.028.282-.028.452 0 .818.312 1.976 1.785 3.077.538.396 1.077.988 1.077 1.778 0 .368-.113.763-.396 1.214-.816 1.326-2.671 2.263-4.67 2.339l-.262.005h-3.825l3.004-19zm-35.142 8.348c1.65 0 2.941.356 3.601.987.467.439.632 1.016.495 1.675-.137.631-.825 1.454-1.897 2.195-2.997 2.113-2.474 4.281-2.255 4.913.663 1.797 2.854 2.806 4.636 2.878l.203.004h4.118l-3.655 23h.033c-1.309 8.27-2.278 14.576-2.493 15.931l-.01.069H6.818c.408-2.662 5.694-36.098 6.12-38.924l.011-.076h3.96c2.556-.027 4.947-1.208 6.047-3.02 1.072-1.755.66-3.622-1.072-4.912-.578-.439-1.238-1.126-1.1-1.976.192-1.153 2.145-2.744 4.922-2.744z" fill="#3B8BBA"/></g></svg>