<svg width="96" height="96" xmlns="http://www.w3.org/2000/svg"><g fill="none" fill-rule="evenodd"><path d="M96 48c0 26.51-21.491 48-48 48C21.49 96 0 74.51 0 48 0 21.491 21.49 0 48 0c26.509 0 48 21.491 48 48" fill="#FFF"/><path d="M21.946 2h52.108a5.571 5.571 0 015.57 5.571v80.858A5.57 5.57 0 0174.055 94H21.946a5.57 5.57 0 01-5.571-5.571V7.571A5.571 5.571 0 0121.945 2" fill="#FFF"/><path fill="#EAF1F3" d="M75.4 6.427L20.507 6.28l-.175 66.169 54.893.146z"/><path fill="#FFF" d="M23.295 68.228h49.143v-26.01H23.295z"/><path d="M74.054 1a6.579 6.579 0 016.57 6.571v80.858A6.579 6.579 0 0174.055 95H21.946a6.579 6.579 0 01-6.571-6.571V7.571A6.579 6.579 0 0121.945 1h52.109zm0 2H21.946a4.576 4.576 0 00-4.571 4.571v80.858c0 2.52 2.05 4.571 4.57 4.571h52.109a4.577 4.577 0 004.57-4.571V7.571A4.577 4.577 0 0074.055 3zM47.866 75.75a6.758 6.758 0 016.75 6.75 6.758 6.758 0 01-6.75 6.75 6.758 6.758 0 01-6.75-6.75 6.758 6.758 0 016.75-6.75zm0 2a4.756 4.756 0 00-4.75 4.75 4.756 4.756 0 004.75 4.75 4.756 4.756 0 004.75-4.75 4.756 4.756 0 00-4.75-4.75zm-14.89-17.79c.28.28.44.66.44 1.06s-.15.78-.44 1.06c-.14.14-.3.25-.48.33-.18.07-.38.11-.58.11a1.502 1.502 0 01-1.5-1.5c0-.1.01-.2.03-.29.02-.1.05-.2.09-.28.04-.1.08-.18.14-.26.05-.09.11-.16.18-.23.07-.07.15-.13.23-.19.08-.05.17-.1.26-.14.09-.03.18-.06.28-.08.49-.1 1.01.06 1.35.41zm27.961.059a1 1 0 110 2H37.669a1 1 0 110-2h23.268zm-27.961-5.81c.28.28.44.66.44 1.06s-.15.78-.44 1.062a1.502 1.502 0 01-2.12 0 1.499 1.499 0 010-2.121c.57-.56 1.57-.56 2.12 0zm27.961.06a1 1 0 110 2H37.669a1 1 0 110-2h23.268zm5.75-5.75a1 1 0 110 2H29.045a1 1 0 110-2h37.642z" fill="#1B293C"/><path d="M48.004 10.648c7.542.004 13.654 6.12 13.652 13.662-.007 7.146-5.52 13.076-12.648 13.604v-9.599a4.143 4.143 0 003.13-4.006h2.69A6.822 6.822 0 0151.6 30.11v4.553a10.972 10.972 0 006.76-6.76c1.988-5.72-1.038-11.97-6.76-13.958-5.72-1.99-11.97 1.037-13.959 6.76-1.988 5.72 1.038 11.97 6.76 13.959V30.11a6.818 6.818 0 01-3.228-5.8h2.69a4.142 4.142 0 003.13 4.015v9.598c-7.134-.528-12.65-6.47-12.648-13.623.002-7.541 6.118-13.654 13.66-13.652zM50.15 16.8a2.411 2.411 0 012.402 2.418c0 .66-.399 1.58-1.164 2.31L48 24.765l-3.389-3.246c-.765-.732-1.163-1.65-1.163-2.309a2.41 2.41 0 012.401-2.41c1.095 0 1.562.476 2.151 1.074.588-.598 1.057-1.075 2.15-1.075z" fill="#3B8BBA"/></g></svg>