<svg width="388" height="390" xmlns="http://www.w3.org/2000/svg"><g fill="none" fill-rule="evenodd"><rect fill="#FFF" y="1" width="388" height="388" rx="194"/><path d="M286.464 90.363c2.098.51 2.174.586 2.174 2.56.004 12.71.004 25.421.001 38.132 0 2.053-.057 2.114-2.175 2.72v2.45c0 73.701-.009 147.401.013 221.102.002 6.87-1.957 13.067-6.186 18.5-5.173 6.647-11.989 10.597-20.458 11.646-1.315.163-2.646.273-3.97.274-43.9.014-87.802.018-131.703.007-14.414-.003-26.618-9.486-29.856-23.296-.567-2.416-.79-4.959-.808-7.446-.08-11.875-.037-23.75-.037-35.627V146.293c0-.597.054-1.2-.025-1.787-.049-.364-.206-.85-.48-1.022-.855-.537-.95-1.304-.949-2.173.007-8.056.006-16.113 0-24.169 0-.868.104-1.622.938-2.182.305-.205.463-.778.492-1.197.07-1.009.005-2.027.03-3.042.02-.794-.098-1.388-.84-1.979-.473-.375-.588-1.382-.593-2.108-.04-7.16-.024-14.322-.024-21.483 0-.717.014-1.433-.003-2.149-.023-.982.021-1.89 1.045-2.484.26-.15.387-.703.39-1.072.028-3.58.034-7.16-.007-10.74-.005-.402-.23-.947-.54-1.167-.749-.53-.889-1.217-.887-2.027.008-3.34-.025-6.684.028-10.025.01-.607.166-1.495.578-1.757.915-.58.85-1.328.85-2.158-.004-6.862-.074-13.726.02-20.588.112-8.453 3.22-15.714 9.411-21.585 5.79-5.489 12.783-8.35 20.795-8.359 44.203-.052 88.406-.05 132.61-.01 14.878.012 27.666 11.016 29.806 25.51.243 1.645.343 3.324.345 4.988.023 18.857.015 37.715.015 56.573v2.262zm-8.69 103.492V34.71c0-.955.013-1.91-.024-2.865-.407-10.746-9.189-19.227-20.074-19.332-5.562-.05-11.126-.02-16.688-.008-2.298.005-3.312.931-3.532 3.17-.116 1.187-.162 2.382-.318 3.564-.328 2.501-1.729 4.276-3.97 5.416-1.207.612-2.515.747-3.868.746-25.758-.014-51.516-.01-77.273-.01-.303 0-.605.006-.907-.003-3.59-.107-6.466-2.57-7-6.067-.19-1.235-.226-2.494-.348-3.74-.219-2.248-1.093-3.068-3.372-3.074-5.563-.017-11.128-.102-16.688.021-7.375.162-13.064 3.44-17.045 9.553-2.332 3.58-3.078 7.571-3.078 11.78.014 106.513.011 213.028.012 319.542 0 .537-.062 1.084.016 1.61.28 1.882.407 3.816.95 5.625 2.532 8.452 10.39 14.18 19.42 14.192 18.684.026 37.367.01 56.051.01 25.758 0 51.515.054 77.273-.033 8.762-.029 15.013-4.256 18.783-12.024 1.412-2.91 1.693-6.047 1.693-9.246-.018-53.228-.013-106.455-.013-159.682z" fill="#FFF"/><path d="M180.038 373.839c7.223 0 14.445.004 21.668.009 18.225.01 37.068.023 55.602-.04 8.19-.028 14.209-3.884 17.886-11.461 1.406-2.894 1.593-6.077 1.593-8.81-.015-43.303-.014-86.607-.013-129.911v-29.771l-.001-159.145v-.594c.003-.744.006-1.49-.023-2.232-.385-10.202-8.768-18.271-19.084-18.371-4.457-.042-8.993-.028-13.382-.016l-3.294.009c-1.775.003-2.368.533-2.538 2.267-.045.455-.08.91-.113 1.368-.055.745-.112 1.49-.21 2.229-.362 2.762-1.88 4.84-4.508 6.177-1.49.755-3.081.855-4.305.855h-.016c-20.607-.012-41.218-.011-61.82-.011h-15.71a17.23 17.23 0 01-.681-.003c-4.081-.122-7.354-2.966-7.958-6.915-.128-.832-.19-1.668-.247-2.477-.033-.44-.064-.88-.107-1.318-.17-1.74-.636-2.166-2.38-2.171-1.392-.004-2.784-.012-4.175-.021-4.098-.023-8.332-.05-12.488.042-6.936.153-12.396 3.214-16.23 9.099-1.99 3.055-2.915 6.624-2.914 11.233.01 88.329.01 176.658.01 264.987v54.556c0 .176-.005.353-.011.53-.011.339-.023.658.018.933.076.514.14 1.03.206 1.548.174 1.385.339 2.694.712 3.938 2.41 8.049 9.832 13.466 18.464 13.478 13.324.019 26.648.016 39.972.012l16.077-.003zm43.21 2.017c-7.24 0-14.438-.004-21.543-.008-7.223-.005-14.445-.01-21.667-.01l-16.076.004c-13.325.004-26.651.007-39.976-.012-9.521-.014-17.71-6.003-20.377-14.904-.421-1.403-.604-2.857-.78-4.263a61.042 61.042 0 00-.201-1.503c-.067-.456-.052-.903-.038-1.297.006-.153.01-.307.01-.46v-54.556c0-88.328 0-176.657-.01-264.987-.001-5.014 1.028-8.93 3.239-12.325 4.215-6.471 10.225-9.84 17.86-10.007 4.185-.092 8.434-.065 12.544-.042 1.39.009 2.78.017 4.17.02 2.789.009 4.094 1.198 4.364 3.979.045.454.078.91.11 1.366.06.805.115 1.566.23 2.319.457 2.98 2.94 5.127 6.043 5.219.204.006.406.005.609.003l.268-.001h15.454c20.606 0 41.213-.001 61.82.01 1.514.006 2.53-.19 3.415-.638 2.033-1.033 3.155-2.556 3.43-4.654.094-.702.146-1.41.199-2.117.035-.472.07-.944.116-1.414.272-2.773 1.71-4.067 4.525-4.072l3.292-.01c4.393-.012 8.937-.025 13.408.017 11.385.11 20.637 9.025 21.063 20.295.029.77.028 1.542.025 2.314l-.001.588V223.625c0 43.305-.001 86.608.014 129.912 0 2.959-.211 6.424-1.793 9.683-4.04 8.323-10.66 12.557-19.68 12.588-11.31.038-22.736.048-34.066.048zM93.214 54.532c-.074.138-.173.528-.18.972-.036 2.255-.032 4.512-.03 6.768.003 1.08.005 2.162.002 3.243-.002.746.148.984.465 1.209.622.44.955 1.325.962 1.97.037 3.213.039 6.733.007 10.76-.002.238-.053 1.445-.888 1.929-.47.272-.571.57-.547 1.596.012.503.009 1.006.006 1.509l-.004 5.422c-.003 5.573-.005 11.146.026 16.719.005.878.174 1.279.234 1.35 1.088.862 1.22 1.84 1.197 2.767-.01.394-.005.789 0 1.183.006.618.013 1.258-.031 1.904-.023.327-.157 1.436-.933 1.957-.39.262-.496.552-.495 1.352.007 8.056.007 16.114 0 24.17-.001.869.125 1.102.48 1.325.697.436.889 1.359.94 1.736.067.497.055.97.043 1.43-.004.163-.01.328-.01.49v175.093l-.004 9.29c-.01 8.63-.018 17.555.042 26.33.018 2.66.28 5.09.782 7.224 3.108 13.259 14.986 22.52 28.883 22.525 43.9.01 87.8.006 131.7-.008 1.152 0 2.41-.087 3.849-.265 8.096-1.004 14.755-4.795 19.792-11.268 3.967-5.097 5.977-11.115 5.975-17.886-.017-58.583-.015-117.166-.014-175.75V133.02l.726-.207c.529-.151 1.252-.358 1.38-.485.07-.135.073-.82.073-1.273 0-12.711 0-25.422-.003-38.133 0-.366-.001-1.047-.074-1.197-.12-.094-.852-.272-1.337-.39l-.764-.185V75.456c.002-14.642.003-29.284-.015-43.927a33.554 33.554 0 00-.334-4.843c-2.074-14.044-14.463-24.644-28.82-24.657-47.653-.041-91.028-.037-132.606.01-7.693.01-14.46 2.73-20.108 8.086-5.928 5.622-8.99 12.644-9.1 20.873-.066 4.86-.05 9.805-.033 14.589.006 1.995.013 3.99.014 5.985v.149c.005.835.01 1.973-1.248 2.81zm82.004 334.229c-17.02 0-34.037 0-51.057-.006-14.831-.004-27.51-9.901-30.831-24.068-.534-2.28-.815-4.86-.834-7.667-.06-8.783-.051-17.711-.042-26.345l.005-9.29V146.295c0-.181.005-.362.01-.543.01-.397.02-.773-.026-1.112a1.318 1.318 0 00-.1-.36c-1.343-.893-1.34-2.291-1.338-2.968.007-8.056.007-16.112 0-24.168-.001-.666-.002-2.042 1.317-2.97.043-.084.1-.276.115-.478.039-.566.033-1.138.027-1.744-.005-.418-.01-.836 0-1.254.017-.641-.07-.86-.462-1.171-.635-.505-.961-1.476-.97-2.886-.032-5.577-.028-11.154-.025-16.731l.004-5.432a50.12 50.12 0 00-.005-1.451c-.021-.884-.055-2.343 1.387-3.277.023-.08.046-.202.047-.31.032-4.015.03-7.522-.007-10.722a.773.773 0 00-.144-.382c-1.14-.806-1.285-1.934-1.283-2.825.003-1.078 0-2.156-.001-3.235-.005-2.268-.007-4.536.03-6.804.009-.584.129-2.006 1.04-2.585.363-.23.392-.385.387-1.154v-.16c-.001-1.992-.008-3.985-.014-5.98-.016-4.79-.033-9.745.033-14.621.118-8.788 3.39-16.29 9.724-22.298 6.032-5.72 13.26-8.624 21.482-8.633 41.578-.05 84.956-.053 132.61-.011 15.34.014 28.579 11.348 30.797 26.365a35.55 35.55 0 01.355 5.133c.018 14.643.017 29.286.016 43.929l-.001 14.137c1.869.544 2.174 1.149 2.175 3.329.003 12.71.003 25.422.003 38.134-.003 2.244-.287 2.837-2.178 3.459l-.001 47.064c-.001 58.583-.003 117.166.014 175.748.002 7.227-2.15 13.658-6.397 19.115-5.375 6.907-12.482 10.953-21.124 12.024-1.521.189-2.86.28-4.093.28-26.881.01-53.764.015-80.645.015z" fill="#1B293C"/><path d="M277.774 193.855V34.71c0-.955.013-1.911-.024-2.864-.407-10.747-9.189-19.228-20.074-19.333-5.562-.054-11.126-.02-16.688-.008-2.298.005-3.312.931-3.532 3.17-.116 1.187-.162 2.383-.318 3.564-.328 2.502-1.729 4.277-3.97 5.416-1.207.613-2.515.747-3.868.746-25.758-.013-51.516-.009-77.274-.01-.302 0-.604.006-.906-.003-3.59-.107-6.466-2.571-7-6.067-.19-1.235-.226-2.493-.348-3.74-.219-2.248-1.093-3.068-3.373-3.074-5.562-.016-11.127-.102-16.687.021-7.375.162-13.064 3.441-17.045 9.553-2.332 3.579-3.079 7.571-3.078 11.779.014 106.515.011 213.029.012 319.543 0 .537-.062 1.084.016 1.61.28 1.883.407 3.816.95 5.626 2.532 8.451 10.39 14.178 19.42 14.191 18.683.026 37.367.009 56.051.009 25.757 0 51.515.055 77.273-.031 8.762-.03 15.013-4.256 18.783-12.025 1.412-2.91 1.693-6.047 1.693-9.246-.018-53.227-.013-106.455-.013-159.682" fill="#EAF1F3"/><path d="M180.038 373.839c7.223 0 14.445.004 21.668.009 18.225.01 37.068.023 55.602-.04 8.19-.028 14.209-3.884 17.886-11.461 1.406-2.894 1.593-6.077 1.593-8.81-.015-43.303-.014-86.607-.013-129.911v-29.771l-.001-159.145v-.594c.003-.744.006-1.49-.023-2.232-.385-10.202-8.768-18.271-19.084-18.371-4.458-.044-8.995-.03-13.382-.016l-3.294.009c-1.775.003-2.368.533-2.538 2.267-.045.455-.08.91-.113 1.368-.055.745-.112 1.49-.21 2.229-.362 2.762-1.88 4.84-4.508 6.177-1.49.755-3.081.855-4.305.855h-.016c-20.607-.012-41.214-.013-61.82-.011h-15.71c-.227.002-.453.004-.681-.003-4.081-.122-7.354-2.966-7.958-6.915-.128-.832-.19-1.668-.247-2.477-.033-.44-.064-.88-.107-1.318-.17-1.74-.636-2.166-2.38-2.171-1.392-.004-2.784-.012-4.176-.021-4.096-.023-8.331-.05-12.487.042-6.936.153-12.396 3.214-16.23 9.099-1.99 3.055-2.915 6.624-2.914 11.233.01 88.329.01 176.658.01 264.987v54.556c0 .176-.005.353-.011.53-.011.339-.023.658.018.933.076.514.14 1.03.206 1.548.174 1.385.339 2.694.712 3.938 2.41 8.049 9.832 13.466 18.464 13.478 13.323.019 26.647.016 39.972.012l16.077-.003zm43.21 2.017c-7.24 0-14.438-.004-21.543-.008-7.223-.005-14.445-.01-21.667-.01l-16.076.004c-13.326.004-26.652.007-39.976-.012-9.521-.013-17.71-6.003-20.377-14.904-.421-1.403-.604-2.857-.78-4.263a61.775 61.775 0 00-.201-1.504c-.067-.455-.05-.902-.038-1.296.006-.153.01-.307.01-.46v-54.556c0-88.328 0-176.657-.01-264.987-.001-5.014 1.028-8.93 3.239-12.325 4.215-6.471 10.225-9.84 17.86-10.007 4.185-.092 8.434-.065 12.544-.042 1.39.009 2.78.017 4.17.02 2.789.009 4.094 1.198 4.364 3.979.045.454.078.91.11 1.366.06.805.115 1.566.23 2.319.457 2.98 2.94 5.127 6.043 5.219.204.006.406.005.609.003l.268-.001h15.454c20.609.002 41.213-.001 61.82.01 1.514.006 2.53-.19 3.415-.638 2.033-1.033 3.155-2.556 3.43-4.654.094-.703.146-1.41.199-2.117.035-.472.07-.944.116-1.414.272-2.773 1.71-4.067 4.525-4.072l3.292-.01c4.393-.012 8.937-.025 13.408.017 11.385.11 20.637 9.025 21.063 20.295.029.77.028 1.542.025 2.314l-.001.588V223.625c0 43.305-.001 86.608.014 129.912 0 2.959-.211 6.424-1.793 9.683-4.04 8.323-10.66 12.557-19.68 12.588-11.31.038-22.736.048-34.066.048z" fill="#1B293C"/><path d="M175.95 16.627h29.173a1.562 1.562 0 110 3.125H175.95a1.562 1.562 0 110-3.125" fill="#FFF"/><path d="M175.95 17.627a.562.562 0 000 1.125h29.173a.564.564 0 000-1.125H175.95zm29.173 3.125H175.95a2.566 2.566 0 01-2.563-2.563 2.565 2.565 0 012.563-2.562h29.173a2.565 2.565 0 012.563 2.562 2.566 2.566 0 01-2.563 2.563z" fill="#1B293C"/><path d="M212.192 16.627c1.013 0 1.835.7 1.835 1.562 0 .864-.822 1.563-1.835 1.563-1.014 0-1.835-.699-1.835-1.563 0-.862.821-1.562 1.835-1.562" fill="#FFF"/><path d="M212.192 17.627c-.492 0-.835.296-.835.562 0 .267.343.563.835.563.492 0 .835-.296.835-.563 0-.266-.343-.562-.835-.562m0 3.125c-1.563 0-2.835-1.149-2.835-2.563 0-1.413 1.272-2.562 2.835-2.562s2.835 1.149 2.835 2.562c0 1.414-1.272 2.563-2.835 2.563" fill="#1B293C"/><path d="M112.933 92.416h153.884c.4 0 .724.325.724.725v75.846c0 .4-.324.724-.724.724H112.933a.724.724 0 01-.724-.725V93.142c0-.4.324-.725.724-.725" fill="#FFF"/><path d="M134.897 108.043h110.071a3.257 3.257 0 013.257 3.257v2.979a3.257 3.257 0 01-3.257 3.257h-110.07a3.257 3.257 0 01-3.258-3.257V111.3a3.257 3.257 0 013.257-3.257M152.774 128.293h51.778a3.258 3.258 0 013.258 3.257v.913a3.258 3.258 0 01-3.258 3.257h-51.778a3.257 3.257 0 01-3.257-3.256v-.913a3.257 3.257 0 013.257-3.257" fill="#EAF1F3"/><path d="M137.069 127.198a5.429 5.429 0 11-.001 10.857 5.429 5.429 0 010-10.857" fill="#3B8BBA"/><path d="M152.774 146.264h51.778a3.258 3.258 0 013.258 3.257v.913a3.258 3.258 0 01-3.258 3.257h-51.778a3.257 3.257 0 01-3.257-3.257v-.913a3.257 3.257 0 013.257-3.257M137.069 145.168a5.429 5.429 0 11-.001 10.857 5.429 5.429 0 010-10.857" fill="#EAF1F3"/><path d="M112.933 182.27h153.884c.4 0 .724.324.724.724v75.846c0 .4-.324.724-.724.724H112.933a.724.724 0 01-.724-.724v-75.846c0-.4.324-.724.724-.724" fill="#FFF"/><path d="M134.897 197.897h110.071a3.257 3.257 0 013.257 3.257v2.978a3.257 3.257 0 01-3.257 3.257h-110.07a3.257 3.257 0 01-3.258-3.257v-2.978a3.257 3.257 0 013.257-3.257M152.774 218.147h51.778a3.258 3.258 0 013.258 3.257v.913a3.258 3.258 0 01-3.258 3.257h-51.778a3.257 3.257 0 01-3.257-3.257v-.913a3.257 3.257 0 013.257-3.257" fill="#EAF1F3"/><path d="M137.069 217.051a5.429 5.429 0 11-.001 10.857 5.429 5.429 0 010-10.857" fill="#3B8BBA"/><path d="M152.774 236.118h51.778a3.258 3.258 0 013.258 3.257v.913a3.258 3.258 0 01-3.258 3.257h-51.778a3.257 3.257 0 01-3.257-3.257v-.913a3.257 3.257 0 013.257-3.257M137.069 235.022a5.429 5.429 0 11-.001 10.857 5.429 5.429 0 010-10.857" fill="#EAF1F3"/><path d="M112.933 272.123h153.884c.4 0 .724.324.724.724v75.846c0 .4-.324.724-.724.724H112.933a.724.724 0 01-.724-.724v-75.846c0-.4.324-.724.724-.724" fill="#FFF"/><path d="M134.897 287.75h110.071a3.257 3.257 0 013.257 3.257v2.979a3.257 3.257 0 01-3.257 3.257h-110.07a3.257 3.257 0 01-3.258-3.257v-2.979a3.257 3.257 0 013.257-3.257M132.364 303.494h115.138c.4 0 .723.324.723.724v32.15a.724.724 0 01-.723.724H132.364a.724.724 0 01-.724-.724v-32.15c0-.4.324-.724.724-.724" fill="#EAF1F3"/><path d="M216.806 61.014c.004-12.464-10.097-22.572-22.561-22.576-12.464-.005-22.572 10.097-22.576 22.56-.004 11.82 9.113 21.642 20.902 22.515V67.649a6.845 6.845 0 01-5.173-6.635h-4.445a11.275 11.275 0 005.335 9.587v7.523c-9.455-3.286-14.456-13.614-11.17-23.07 3.285-9.454 13.613-14.456 23.068-11.17 9.455 3.286 14.457 13.614 11.17 23.069a18.12 18.12 0 01-11.17 11.17v-7.522a11.271 11.271 0 005.336-9.587h-4.445a6.846 6.846 0 01-5.172 6.62v15.864c11.776-.872 20.889-10.675 20.9-22.484" fill="#3B8BBA"/><path d="M199.838 56.416c1.264-1.204 1.923-2.726 1.923-3.816a3.985 3.985 0 00-3.97-3.997c-1.805 0-2.581.79-3.553 1.776-.972-.986-1.746-1.776-3.554-1.776a3.984 3.984 0 00-3.97 3.984c0 1.09.66 2.606 1.924 3.816l5.6 5.366 5.6-5.353z" fill="#3B8BBA"/><path d="M212.353 182.51l-16.741 29.018c-5.956 4.759-10.596 9.474-13.921 14.145-.634 1.435-1.041 3.959 3.26 1.68 4.303-2.28 8.933-4.484 10.23-3.25 1.299 1.234-.58 4.203 1.586 5.688 1.443.99 3.815-4.101 7.118-15.273L224.02 193.6l-11.667-11.09z" fill="#FFF"/><path d="M194.04 222.747c.769 0 1.378.2 1.83.631.9.855.845 2.058.795 3.12-.052 1.111-.054 1.848.507 2.344.522-.426 2.229-2.682 5.754-14.608l.069-.234 19.607-20.369-10.018-9.52-16.2 28.08-.148.118c-5.82 4.65-10.417 9.311-13.67 13.857-.22.527-.274.914-.268 1.101.224 0 .845-.087 2.186-.798 4.33-2.294 7.508-3.722 9.557-3.722m3.096 8.165c-.33 0-.65-.1-.936-.296-1.676-1.15-1.594-2.919-1.534-4.21.03-.666.063-1.353-.174-1.578-.221-.21-1.528-.587-9.073 3.41-1.392.737-3.376 1.594-4.522.527-.75-.7-.795-1.974-.121-3.497l.099-.176c3.336-4.685 8.033-9.47 13.964-14.227l17.282-29.954 13.317 12.657-20.665 21.467c-3.875 13.062-5.743 15.307-7.06 15.775a1.726 1.726 0 01-.577.102" fill="#1B293C"/><path d="M223.443 125.684c-4.199 18.03-7.296 49.082-26.766 81.374l16.295 7.298c26.57-25.483 48.073-52.6 45.554-79.783-.42-4.55-14.064-.935-35.083-8.89" fill="#3B8BBA"/><path d="M246.77 114.722l3.55.52c8.505 1.248 13.609-63.49 13.609-63.49-9.254-8.881-35.943-15.214-42.39 5.816-6.447 21.03 6.828 51.216-7.544 69.973l32.67-12.16c.037-.221.07-.441.105-.66" fill="#FFF"/><path d="M241.362 44.46c-2.093 0-4.142.227-6.07.728-6.427 1.67-10.732 5.934-12.798 12.672-2.623 8.56-1.922 18.543-1.178 29.114.956 13.582 1.94 27.593-4.718 38.53l29.171-10.857.163-1.059 4.534.665c.084.011.346.05.774-.291 5.875-4.687 10.361-45.734 11.653-61.81-4.693-4.267-13.427-7.693-21.531-7.693zm-30.273 85.23l2.112-2.757c8.17-10.665 7.129-25.487 6.12-39.82-.723-10.287-1.471-20.924 1.262-29.838 2.25-7.343 7.163-12.191 14.206-14.023 10.56-2.745 23.708 1.9 29.832 7.777l.342.328-.038.474c-.01.141-1.149 14.438-3.198 29.287-4.192 30.383-7.99 33.412-9.24 34.407-.734.585-1.51.825-2.312.706l-2.575-.376-.042.26-36.47 13.575z" fill="#1B293C"/><path d="M252.103 89.733c5.522-3.21 9.831-8.523 10.127-16.86.744-20.96-28.358-19.39-35.029-9.474-6.67 9.917-5.814 27.015 1.184 29.648 1.8.678 4.864 1.06 8.435.894l-1.696 19.197 15.885-.028 1.094-23.377z" fill="#FFF"/><path d="M237.917 92.89l-1.7 19.247 13.838-.024 1.075-22.97.47-.274c6.14-3.568 9.38-8.962 9.63-16.031.255-7.15-3.25-12.27-9.865-14.418-8.273-2.685-19.613.006-23.334 5.538-4.703 6.99-5.26 16.959-3.397 22.789.634 1.982 1.86 4.52 4.103 5.365 1.78.67 4.789.983 8.037.83l1.143-.052zm-3.884 21.25l1.692-19.164c-3.101.047-5.862-.303-7.692-.992-2.368-.891-4.203-3.183-5.304-6.628-2.006-6.277-1.411-17.002 3.643-24.514 4.229-6.287 16.439-9.301 25.61-6.324 7.542 2.448 11.536 8.268 11.248 16.39-.267 7.509-3.775 13.518-10.153 17.41l-1.113 23.792-17.931.03z" fill="#1B293C"/><path fill="#FFF" d="M261.01 190.392l-31.775 105.773-15.394 89.954h-12.069l16.265-195.727z"/><path d="M202.86 385.119h10.138l15.28-89.241 31.387-104.486h-40.707L202.86 385.119zm11.825 2h-13.999l16.431-197.727h45.237L230.21 296.394l-15.525 90.725z" fill="#1B293C"/><path d="M272.377 190.392c-2.158 58.075.382 88.032.865 93.308.483 5.276 7.097 39.489 22.756 104.19l-12.86-4.497c-24.747-59.341-33.18-90.181-36.02-97.973-2.837-7.793-10.375-39.468-22.614-95.028h47.873z" fill="#FFF"/><path d="M283.889 382.596l10.705 3.744c-15.602-64.593-21.881-97.451-22.348-102.55-.72-7.862-2.9-37.661-.907-92.398h-45.591c12.017 54.515 19.522 86.029 22.31 93.685.567 1.555 1.347 3.996 2.426 7.374 4.442 13.9 13.67 42.783 33.405 90.145zm13.513 6.844l-15.015-5.25-.172-.412c-19.886-47.684-29.173-76.75-33.636-90.72-1.072-3.354-1.847-5.78-2.4-7.296-2.84-7.795-10.46-39.81-22.652-95.155l-.267-1.215h50.155l-.04 1.037c-2.053 55.282.14 85.297.862 93.18.467 5.099 6.84 38.379 22.733 104.046l.432 1.785z" fill="#1B293C"/><path d="M294.96 376.19c1.01 2.698 1.514 4.706 1.514 6.023 0 1.55-.254 3.813-.761 6.787h-47.625c-1.237-4.166-.523-6.415 2.144-6.747 2.666-.332 4.88-.632 6.645-.9l22.242-10.096a.723.723 0 01.958.36l.012.027 1.47 3.633c2.469 1.173 4.475 1.759 6.018 1.759 1.294 0 3.096-.55 5.407-1.647a1.447 1.447 0 011.977.8" fill="#FFF"/><path d="M248.849 388h46.016c.404-2.502.609-4.446.609-5.787 0-1.191-.487-3.098-1.448-5.669l-.02-.045a.443.443 0 00-.251-.224.453.453 0 00-.342.018c-2.47 1.173-4.38 1.743-5.836 1.743-1.71 0-3.818-.607-6.447-1.856l-.351-.167-1.51-3.727-22.243 10.056a261 261 0 01-6.671.903c-.72.09-1.206.343-1.488.775-.348.531-.61 1.648-.018 3.98zm47.708 2h-49.215l-.213-.715c-.861-2.898-.84-4.978.064-6.359.615-.941 1.595-1.501 2.915-1.665 2.567-.32 4.746-.615 6.482-.876l22.115-10.039a1.707 1.707 0 011.318-.044c.432.162.774.482.964.902l1.352 3.334c2.16.994 3.922 1.498 5.238 1.498 1.138 0 2.813-.521 4.978-1.55a2.452 2.452 0 013.34 1.349l.002.005c1.06 2.837 1.577 4.921 1.577 6.373 0 1.621-.253 3.896-.775 6.955l-.142.832z" fill="#1B293C"/><path d="M217.277 376.19c1.009 2.698 1.513 4.706 1.513 6.023 0 1.55-.253 3.813-.761 6.787h-47.625c-1.237-4.166-.523-6.415 2.144-6.747 2.666-.332 4.88-.632 6.645-.9l22.242-10.096a.723.723 0 01.958.36l.012.027 1.47 3.633c2.469 1.173 4.475 1.759 6.018 1.759 1.294 0 3.096-.55 5.407-1.647a1.447 1.447 0 011.977.8" fill="#FFF"/><path d="M171.165 388h46.016c.404-2.5.61-4.444.61-5.787 0-1.192-.489-3.1-1.45-5.673l-.014-.031a.451.451 0 00-.598-.217c-2.47 1.174-4.379 1.744-5.836 1.744-1.709 0-3.818-.607-6.447-1.856l-.352-.167-1.509-3.727-22.243 10.056c-1.777.269-4.022.574-6.672.903-.718.09-1.205.343-1.487.775-.348.531-.61 1.648-.018 3.98zm47.708 2h-49.215l-.213-.715c-.86-2.897-.84-4.977.063-6.359.615-.941 1.596-1.501 2.915-1.665a265.27 265.27 0 006.482-.876l22.115-10.039a1.71 1.71 0 011.32-.044c.43.162.772.482.963.901l1.351 3.335c2.162.994 3.923 1.498 5.24 1.498 1.137 0 2.812-.521 4.977-1.55a2.428 2.428 0 011.87-.095 2.428 2.428 0 011.473 1.452c1.06 2.835 1.576 4.919 1.576 6.37 0 1.623-.254 3.898-.775 6.955l-.142.832z" fill="#1B293C"/><path d="M273.583 203.023c4.445 17.101-30.059 95.364-39.505 119.713h-37.4l22.112-119.713h54.793z" fill="#FFF"/><path d="M197.88 321.737h35.514c1.661-4.252 4.027-10.028 6.745-16.665 12.383-30.237 35.25-86.072 32.637-101.048h-53.154L197.88 321.737zm36.882 2h-39.286l22.482-121.713h56.4l.193.748c3.745 14.406-18.982 69.902-32.56 103.058-2.854 6.967-5.318 12.982-6.98 17.269l-.249.638z" fill="#1B293C"/><path d="M272.83 190.392c4.446 17.1 12.318 98.273 9.56 126.455l-39.343 5.89-25.01-132.345h54.794z" fill="#FFF"/><path d="M219.244 191.392l24.606 130.214 37.617-5.632c2.5-28.416-5.16-106.79-9.418-124.582h-52.805zm23 132.477L216.83 189.392h56.773l.194.749c4.394 16.902 12.427 97.773 9.588 126.803l-.076.776-41.067 6.149z" fill="#1B293C"/><path d="M273.901 206.211h-61.709c14.74-45.723 18.906-83.187 19.226-100.227.016-.868 1.593-2.399 2.291-2.198 5.104 1.466 10.565.917 16.384-1.645 15.427 25.235 20.762 62.386 23.808 104.07" fill="#FFF"/><path d="M213.564 205.212h59.26c-2.782-37.59-7.581-75.795-23.137-101.81-5.67 2.328-11.088 2.793-16.122 1.383-.38.155-1.091.91-1.15 1.24-.131 7.142-1.672 45.362-18.851 99.187zm61.413 2h-64.158l.422-1.307c17.487-54.245 19.043-92.767 19.177-99.938.02-1.1 1.073-2.166 1.69-2.622.686-.506 1.316-.682 1.878-.52 4.849 1.393 10.132.856 15.704-1.598l.8-.353.456.746c16.285 26.637 21.136 65.976 23.953 104.519l.078 1.073z" fill="#1B293C"/><path d="M281.834 239.832c-14.574 0-14.293-11.923-39.393-11.923-32.864 0-17.375-66.28 2.113-125.96h10.082c2.57 0 3.662 1.897 4.175 2.903 13.427 26.341 28.534 97.313 23.023 134.98" fill="#3B8BBA"/><path d="M193.271 133.066l-33.525-.613c-7.06-2.908-13.44-4.686-19.143-5.335-1.564.139-3.97 1.003.115 3.663s3.993 2.375 3.545 4.106c-.449 1.732 1.344 4.176 1.098 6.786-.164 1.74 4.412 1.972 15.792-.541l28.09 7.497 4.028-15.563z" fill="#FFF"/><path d="M161.175 140.103l27.352 7.3 3.459-13.36-32.446-.594-.175-.072c-6.898-2.84-13.212-4.609-18.77-5.254-.565.062-.93.2-1.091.296.11.196.49.696 1.76 1.524l1.105.715c2.858 1.844 3.453 2.227 2.906 4.315l-.043.164c-.15.575.137 1.488.44 2.452.38 1.216.812 2.591.694 4.084.357.224 2.66 1.113 14.572-1.518l.238-.052zm28.784 9.751l-28.829-7.693c-12.375 2.714-15.142 1.857-16.143.971a1.802 1.802 0 01-.622-1.553c.107-1.127-.254-2.279-.603-3.392-.39-1.246-.759-2.423-.468-3.55l.045-.173c.062-.234.14-.528.134-.614-.115-.174-1.03-.764-2.189-1.511l-1.11-.72c-1.325-.862-3.039-2.183-2.66-3.7.247-.995 1.341-1.65 3-1.797l.101-.01.101.013c5.72.65 12.19 2.444 19.235 5.332l34.605.632-4.597 17.766z" fill="#1B293C"/><path d="M244.405 102.55c-17.297 6.6-22.655 33.154-79.567 29.43l2.408 17.82c35.247 18.732 57.293 31.128 80.98.796" fill="#3B8BBA"/><path d="M252.87 76.78c2.786.292 4.126 4.394 3.83 7.214-.297 2.821-2.781 4.637-5.581 4.577-10.781-.233-17.827 41.06-7.342 39.095 17.575-3.294 15.702 10.227 33.072 9.272-19.21-37.65 3.744-67.292-10.89-83.95-14.633-16.659-40.214-7.758-37.976 7.857 1.639 9.237 12.804 10.547 20.387 18.637 1.018-2.302 3.042-2.855 4.5-2.702" fill="#FFF"/><path d="M248.854 126.153c6.044 0 9.373 2.444 12.616 4.824 3.36 2.466 6.825 5.009 13.68 5.009h.108c-9.787-20.166-7.781-38.15-6.162-52.666 1.396-12.516 2.498-22.402-3.888-29.672-8.341-9.496-20.207-10.106-27.703-6.655-6.166 2.84-9.356 7.966-8.532 13.71.906 5.103 5.14 7.648 10.045 10.595 2.952 1.774 6.26 3.762 9.15 6.555 1.305-1.734 3.25-2.227 4.807-2.067 1.623.17 3 1.32 3.876 3.238.7 1.535 1.016 3.432.843 5.075-.341 3.246-3.12 5.552-6.596 5.472-2.082-.043-4.373 2.085-6.393 5.999-4.851 9.405-6.71 25.755-3.43 30.163.618.829 1.355 1.13 2.318.95 1.964-.367 3.703-.53 5.26-.53m26.305 11.833c-7.518 0-11.41-2.856-14.871-5.396-4.077-2.992-7.598-5.575-16.326-3.94-1.723.32-3.21-.272-4.29-1.723-4.074-5.473-1.62-22.822 3.257-32.274 2.392-4.637 5.19-7.083 8.1-7.083l.23.002c2.36 0 4.22-1.532 4.447-3.682.135-1.283-.123-2.83-.674-4.035-.33-.723-1.063-1.954-2.265-2.08-.573-.062-2.51-.085-3.481 2.11l-.611 1.384-1.033-1.103c-2.904-3.098-6.335-5.16-9.653-7.154-5.101-3.065-9.92-5.96-10.99-11.992-.946-6.603 2.76-12.661 9.67-15.843 8.15-3.752 21.025-3.115 30.043 7.15 6.969 7.934 5.766 18.723 4.372 31.215-1.626 14.587-3.651 32.74 6.656 52.942l.698 1.369-1.534.084c-.602.033-1.184.049-1.745.049" fill="#1B293C"/></g></svg>