<svg width="96" height="96" xmlns="http://www.w3.org/2000/svg"><g fill="none" fill-rule="evenodd"><path d="M96 48c0 26.51-21.49 48-48 48S0 74.51 0 48 21.49 0 48 0s48 21.49 48 48" fill="#FFF"/><path d="M22.1 2h52.107a5.572 5.572 0 015.572 5.571v80.858A5.572 5.572 0 0174.207 94H22.1a5.57 5.57 0 01-5.571-5.571V7.571A5.57 5.57 0 0122.099 2" fill="#FFF"/><path fill="#EAF1F3" d="M75.553 6.427L20.66 6.28l-.175 83.344 54.893.146z"/><path d="M72.591 70.986v15.733H39.528V70.986h33.063zm-42.534-36.49a5.75 5.75 0 011 11.412v7.978a5.751 5.751 0 010 11.326v7.977a5.751 5.751 0 11-2 0v-7.977a5.751 5.751 0 010-11.327V45.91a5.75 5.75 0 011-11.413zM72.59 51.681v15.733H39.528V51.682h33.063zm0-19.304V48.11H39.528V32.378h33.063z" fill="#FFF"/><path d="M48.156 8.767a8.625 8.625 0 018.622 8.628 8.626 8.626 0 01-7.988 8.593v-6.064a2.615 2.615 0 001.977-2.529h1.7a4.307 4.307 0 01-2.04 3.663v2.875a6.926 6.926 0 10-4.547 0v-2.875a4.309 4.309 0 01-2.04-3.663h1.7c0 1.198.814 2.242 1.976 2.535v6.064a8.625 8.625 0 01-7.988-8.604 8.624 8.624 0 018.628-8.623zm1.355 3.886c.84.003 1.52.686 1.518 1.527 0 .416-.253.998-.736 1.458l-2.14 2.046-2.14-2.05c-.483-.463-.734-1.042-.734-1.46 0-.837.677-1.518 1.515-1.521.693 0 .988.3 1.36.678.37-.377.667-.678 1.357-.678z" fill="#3B8BBA"/><path d="M74.207 1a6.579 6.579 0 016.572 6.571v80.858A6.579 6.579 0 0174.207 95H22.1a6.578 6.578 0 01-6.571-6.571V7.571A6.578 6.578 0 0122.099 1h52.108zm0 2H22.1a4.576 4.576 0 00-4.571 4.571v80.858c0 2.52 2.05 4.571 4.57 4.571h52.108a4.577 4.577 0 004.572-4.571V7.571A4.577 4.577 0 0074.207 3zm-6.514 77.728a1 1 0 110 2H44.425a1 1 0 110-2h23.268zM36.68 73.45a.999.999 0 010 1.414l-6.516 6.514a1 1 0 01-.707.293l-.035-.001a1 1 0 01-.72-.344l-2.44-2.81a.998.998 0 01.1-1.41.997.997 0 011.41.099l1.737 2 5.757-5.755a1 1 0 011.414 0zm20.952 1.527a1 1 0 110 2H44.426a1 1 0 110-2H57.63zm10.062-13.554a1 1 0 110 2H44.425a1 1 0 110-2h23.268zM36.68 54.147a.999.999 0 010 1.414l-6.516 6.514a1 1 0 01-.707.293h-.035a1 1 0 01-.72-.345l-2.44-2.81a1 1 0 01.1-1.41.996.996 0 011.41.098l1.737 2.001 5.757-5.755a1 1 0 011.414 0zm20.952 1.527a1 1 0 110 2H44.426a1 1 0 110-2H57.63zM67.693 42.12a1 1 0 110 2H44.425a1 1 0 110-2h23.268zM36.68 34.844a.999.999 0 010 1.413l-6.516 6.515a1 1 0 01-.707.293c-.012 0-.023 0-.035-.002a1 1 0 01-.72-.344l-2.44-2.81a1 1 0 01.1-1.41.997.997 0 011.41.098l1.737 2.002 5.757-5.755a1 1 0 011.414 0zm20.952 1.526a1 1 0 110 2H44.426a1 1 0 110-2H57.63z" fill="#1B293C"/></g></svg>