<svg width="96" height="96" xmlns="http://www.w3.org/2000/svg"><g fill="none" fill-rule="evenodd"><path d="M96 48c0 26.51-21.49 48-48 48C21.491 96 0 74.51 0 48 0 21.491 21.491 0 48 0c26.51 0 48 21.491 48 48" fill="#FFF"/><path fill="#FFF" d="M9.98 54.492h48.99V10.4H9.98z"/><path d="M44.273 4.5a1 1 0 011 1l-.001 3.899H58.97a1 1 0 011 1v44.093a1 1 0 01-1 1H9.98a1 1 0 01-1-1V10.4a1 1 0 011-1l13.696-.001v-3.9a1 1 0 112 0v3.9h17.596v-3.9a1 1 0 011-1zM57.97 26.096H10.98v27.396h46.99V26.096zM23.676 11.399H10.98v12.697h46.99V11.4l-12.698-.001v3.9a1 1 0 11-2 0v-3.9H25.676v3.9a1 1 0 11-2 0v-3.9z" fill="#1B293C"/><path d="M16.946 41.595l3.284 3.285 3.284-3.285a.999.999 0 111.414 1.414l-3.284 3.285 3.285 3.284a.999.999 0 11-1.414 1.414l-3.285-3.284-3.285 3.284a.997.997 0 01-1.414 0 .999.999 0 010-1.414l3.285-3.284-3.284-3.285a.999.999 0 111.414-1.414zm14.245 0l3.284 3.285 3.284-3.285a.999.999 0 111.414 1.414l-3.284 3.285 3.285 3.284a.999.999 0 11-1.414 1.414l-3.285-3.284-3.285 3.284a.997.997 0 01-1.414 0 .999.999 0 010-1.414l3.285-3.284-3.284-3.285a.999.999 0 111.414-1.414zm14.245 0l3.284 3.285 3.285-3.285a.999.999 0 111.413 1.414l-3.284 3.285 3.285 3.284a.999.999 0 11-1.414 1.414l-3.285-3.284-3.285 3.284a.997.997 0 01-1.413 0 .999.999 0 010-1.414l3.284-3.284-3.284-3.285a.999.999 0 111.414-1.414zM16.946 28.8l3.284 3.285 3.284-3.285a.999.999 0 111.414 1.414L21.644 33.5l3.285 3.284a.999.999 0 11-1.414 1.414l-3.285-3.284-3.285 3.284a.997.997 0 01-1.414 0 .999.999 0 010-1.414l3.285-3.284-3.284-3.285a.999.999 0 111.414-1.414zm14.245 0l3.284 3.285L37.76 28.8a.999.999 0 111.414 1.414L35.89 33.5l3.285 3.284a.999.999 0 11-1.414 1.414l-3.285-3.284-3.285 3.284a.997.997 0 01-1.414 0 .999.999 0 010-1.414l3.285-3.284-3.284-3.285A.999.999 0 1131.19 28.8zm14.245 0l3.284 3.285 3.285-3.285a.999.999 0 111.413 1.414L50.135 33.5l3.285 3.284a.999.999 0 11-1.414 1.414l-3.285-3.284-3.285 3.284a.997.997 0 01-1.413 0 .999.999 0 010-1.414l3.284-3.284-3.284-3.285a.999.999 0 111.414-1.414z" fill="#3B8BBA"/><path fill="#FFF" d="M37.03 90.5h48.99V46.41H37.03z"/><path d="M71.324 40.51a1 1 0 011 1v3.899h13.698a1 1 0 011 1V90.5a1 1 0 01-1 1H37.03a1 1 0 01-1-1V46.41a1 1 0 011-1h13.696v-3.9a1 1 0 112 0v3.9h17.597v-3.9a1 1 0 011-1zM85.02 62.106H38.03V89.5h46.99V62.106zM50.727 47.408H38.03l-.001 12.698h46.99V47.409l-12.696-.001v3.9a1 1 0 11-2 0v-3.9H52.727v3.9a1 1 0 11-2 0v-3.9z" fill="#1B293C"/><path d="M61.53 65.201c5.891.002 10.665 4.779 10.663 10.671a10.666 10.666 0 01-9.88 10.628v-7.499a3.234 3.234 0 002.445-3.129h2.102c0 1.846-.954 3.56-2.522 4.532v3.556a8.567 8.567 0 10-5.624 0v-3.556a5.327 5.327 0 01-2.522-4.532h2.101a3.237 3.237 0 002.445 3.137v7.499a10.67 10.67 0 01.791-21.307zm2.016 4.805a1.883 1.883 0 011.876 1.89c0 .514-.311 1.234-.91 1.803l-2.645 2.53-2.648-2.536c-.598-.572-.91-1.289-.91-1.804 0-1.037.84-1.879 1.877-1.883.855 0 1.22.373 1.68.84.459-.467.827-.84 1.68-.84z" fill="#3B8BBA"/></g></svg>