<svg width="16" height="16" xmlns="http://www.w3.org/2000/svg"><path d="M11.75 0A4.255 4.255 0 0116 4.25v7.5A4.255 4.255 0 0111.75 16h-7.5A4.255 4.255 0 010 11.75v-7.5A4.255 4.255 0 014.25 0h7.5zm0 1h-7.5A3.255 3.255 0 001 4.25v7.5A3.255 3.255 0 004.25 15h7.5A3.255 3.255 0 0015 11.75v-7.5A3.255 3.255 0 0011.75 1zm-.288 6.28l.033.19a3.5 3.5 0 01-2.95 4 3.64 3.64 0 01-.52 0 3.5 3.5 0 113.437-4.19zM8.03 5.466l-.005.005c-.122 0-.244.01-.365.03a2.5 2.5 0 00.735 4.945 2.5 2.5 0 000-4.945 2.31 2.31 0 00-.365-.035zm4.255-2.34a.75.75 0 110 1.5.75.75 0 010-1.5z" fill="#EAF1F3" fill-rule="evenodd"/></svg>