<svg width="82" height="64" xmlns="http://www.w3.org/2000/svg"><g fill="none" fill-rule="evenodd"><path d="M19.092 32.755v16.61h9.667v3.26H15.39v-19.87h3.703zm26.711 0v3.26h-4.208v13.35h4.208v3.26h-12.1v-3.26h4.209v-13.35h-4.208v-3.26h12.099zm9.062 0l4.49 14.552h.06l4.491-14.552h3.845l-6.59 19.87H57.54l-6.519-19.87h3.845zm-33.26-21.21c3.32 0 6.327 1.341 7.215 4.237l-3.21 1.252c-.776-1.676-2.23-2.372-4.157-2.372-1.614 0-3.178.868-3.178 2.644 0 1.393 1.342 1.897 2.896 2.31 3.209.869 7.941 1.09 7.941 6.358 0 3.663-3.259 6.085-7.628 6.085-3.653 0-6.993-1.534-8.023-4.904l3.34-1.312c.757 1.927 2.564 3.007 4.794 3.007 2.008 0 3.905-.777 3.905-2.624 0-4.621-10.838-1.11-10.838-8.779 0-3.733 3.098-5.903 6.943-5.903zm19.697.342l7.326 19.87h-3.885l-1.453-4.239h-7.568l-1.503 4.238h-3.704l7.387-19.869h3.4zm13.33-.01V21.1h.03l7.973-9.223h4.51l-7.073 7.83 7.78 12.04H63.33v.01l-5.711-9.345-2.987 3.098v6.246h-3.704V11.877h3.704zm-15.096 4.49h-.06L36.74 24.34h5.49l-2.695-7.971z" fill="#FFF"/><path d="M80.303 62.876V1H1v61.876h79.303z" stroke="#8794A2" stroke-width="2"/></g></svg>