<svg width="16" height="14" xmlns="http://www.w3.org/2000/svg"><path d="M15.81.59a.5.5 0 00-.57 0 7.07 7.07 0 01-1.71.904 3.555 3.555 0 00-6 2.595v.18a6.74 6.74 0 01-5.226-2.875.5.5 0 00-.87.1 8.915 8.915 0 00-.64 3.62 6.395 6.395 0 003.47 5.47c-1.15.6-2.439.884-3.735.825a.5.5 0 00-.265.94 10.74 10.74 0 005.215 1.39 9.296 9.296 0 004.735-1.275c2.83-1.665 4.45-4.725 4.45-8.395a3.5 3.5 0 000-.395A5.76 5.76 0 0016.03 1.12a.5.5 0 00-.22-.53zm-2.05 2.56a.5.5 0 00-.14.45 2.5 2.5 0 01.044.47c0 3.31-1.44 6.054-3.96 7.534a8.64 8.64 0 01-7.175.645 8.4 8.4 0 003.055-1.29.5.5 0 00-.055-.87C1.134 8.144 1.604 4.374 2.07 2.704a7.8 7.8 0 005.96 2.57.5.5 0 00.5-.5v-.69a2.55 2.55 0 014.5-1.71.5.5 0 00.525.15 8.06 8.06 0 001-.38c-.218.37-.485.708-.795 1.005z" fill="#EAF1F3" fill-rule="evenodd"/></svg>